<svg xmlns:xlink="http://www.w3.org/1999/xlink" xmlns="http://www.w3.org/2000/svg" width="321.8478855342943" height="62.109967432927036" viewBox="0 0 321.8478855342943 62.109967432927036" class="css-1j8o68f"><defs id="SvgjsDefs2336"></defs><g id="SvgjsG2337" featurekey="Df7oLJ-0" transform="matrix(0.3527199608967904,0,0,0.3527199608967904,-12.768460162528047,-16.831485785341993)" fill="#FFFFFF"><g xmlns="http://www.w3.org/2000/svg" fill="#FFFFFF"><path d="M210.1,152.1c-0.3-0.4-0.5-0.8-0.8-1.3c-0.2-0.3-0.5-0.7-0.7-1c-0.7-0.9-1.4-1.8-2.2-2.7   c-0.3-0.3-0.6-0.7-1-1c-0.3-0.3-0.6-0.6-0.9-0.9c-0.3,0.3-0.6,0.6-0.9,0.9c-13.7,12.7-43.6,21.5-78.2,21.5s-64.5-8.8-78.2-21.5   c-0.3-0.3-0.6-0.6-0.9-0.9c-0.3,0.3-0.6,0.6-0.9,0.9c-0.3,0.3-0.7,0.7-1,1c-0.8,0.9-1.6,1.8-2.2,2.7c-0.2,0.3-0.5,0.7-0.7,1   c-0.3,0.4-0.6,0.9-0.8,1.3c-0.3,0.5-0.5,1-0.8,1.4c0.3,0.4,0.6,0.9,0.9,1.3c0.8,1.1,1.7,2.2,2.6,3.2c4.5,4.8,11.1,9.2,19.6,12.9   c16.7,7.3,38.9,11.4,62.5,11.4c23.6,0,45.8-4,62.5-11.4c8.5-3.7,15.1-8.1,19.6-12.9c1-1,1.9-2.1,2.6-3.2c0.3-0.4,0.6-0.9,0.9-1.3   C210.7,153,210.4,152.5,210.1,152.1z M212.5,157.9c-0.2-0.7-0.4-1.5-0.6-2.2c-0.2-0.7-0.5-1.3-0.8-2c-0.2,0.7-0.4,1.3-0.6,2   c-0.7,1.9-1.7,3.7-3,5.4c-11.2,14.9-43.7,25.7-82.1,25.7c-38.3,0-70.9-10.8-82-25.7c-1.3-1.8-2.3-3.6-3-5.4l-0.6-2   c-0.3,0.7-0.6,1.3-0.8,2c-0.3,0.7-0.5,1.4-0.6,2.2c-0.3,1.2-0.4,2.5-0.4,3.8c0,0.1,0,0.2,0,0.2c0.3,21.1,39.4,38.2,87.6,38.2   c48.2,0,87.3-17.1,87.6-38.2c0-0.1,0-0.2,0-0.2C212.9,160.5,212.8,159.2,212.5,157.9z M200.5,141.9c-0.4-0.3-0.7-0.5-1.1-0.8   c-2.2-1.5-4.7-3-7.3-4.4c-0.5-0.3-1-0.5-1.6-0.8c-0.5-0.3-1-0.5-1.5-0.7c-0.5,0.3-1,0.5-1.6,0.7c-15.7,7-37.7,11.4-62,11.4   S79,143,63.3,136c-0.5-0.2-1.1-0.5-1.6-0.7c-0.5,0.2-1,0.5-1.5,0.7c-0.5,0.3-1,0.5-1.6,0.8c-2.7,1.4-5.1,2.8-7.4,4.4   c-0.4,0.3-0.8,0.5-1.1,0.8c-0.4,0.3-0.8,0.6-1.2,0.9c0.4,0.3,0.7,0.5,1.1,0.8c3.6,2.5,7.8,4.9,12.7,7c16.7,7.3,38.9,11.4,62.5,11.4   c23.6,0,45.8-4,62.5-11.4c4.9-2.2,9.1-4.5,12.7-7c0.4-0.3,0.7-0.5,1.1-0.8C201.3,142.5,200.9,142.2,200.5,141.9z" fill="#FFFFFF"></path><path d="M213.3,155.8c-0.2-0.7-0.5-1.4-0.8-2.2c-0.2-0.5-0.5-1-0.8-1.5c-0.1-0.2-0.2-0.4-0.3-0.5   c-0.2-0.3-0.4-0.6-0.5-0.9c-0.2-0.3-0.4-0.6-0.6-0.9c-0.1-0.1-0.2-0.3-0.3-0.4c-0.8-1.1-1.7-2.2-2.7-3.2c-0.3-0.3-0.6-0.7-1-1   c-0.3-0.3-0.6-0.6-0.9-0.9c-0.3,0.3-0.6,0.7-1,1c-0.3,0.3-0.6,0.6-0.9,0.9c0.3,0.3,0.6,0.6,0.9,0.9c0.3,0.3,0.7,0.7,1,1   c0.7,0.8,1.4,1.5,1.9,2.3c0.4,0.6,0.8,1.1,1.2,1.7c0.3,0.4,0.5,0.8,0.8,1.3c0.3,0.5,0.5,1,0.7,1.4c0.3-0.4,0.6-0.9,0.9-1.3   c0.1-0.2,0.2-0.3,0.3-0.5c0,0.3-0.1,0.5-0.2,0.8c-0.2,0.7-0.4,1.3-0.6,2c0.3,0.7,0.5,1.3,0.6,2c0.2,0.7,0.3,1.5,0.4,2.2   c0.1,0.6,0.1,1.2,0.1,1.7c0,0.1,0,0.2,0,0.2c-0.3,20.3-38.9,36.8-86.2,36.8c-47.3,0-85.9-16.5-86.2-36.8c0-0.1,0-0.2,0-0.2   c0-0.6,0-1.1,0.1-1.7c0.1-0.8,0.2-1.5,0.4-2.2c0.2-0.7,0.4-1.3,0.6-2l-0.6-2c0-0.1,0.1-0.2,0.1-0.3c0.3,0.4,0.6,0.9,0.9,1.3   c0.2-0.5,0.4-1,0.7-1.5c0.2-0.4,0.5-0.9,0.8-1.3c0.4-0.6,0.8-1.2,1.2-1.7c0.6-0.8,1.2-1.6,1.9-2.3c0.3-0.3,0.6-0.7,1-1   c0.3-0.3,0.6-0.6,0.9-0.9c-0.3-0.3-0.6-0.6-0.9-0.9c-0.3-0.3-0.7-0.7-1-1c-0.3,0.3-0.6,0.6-0.9,0.9c-0.3,0.3-0.7,0.7-1,1   c-1,1.1-1.9,2.1-2.7,3.2c-0.1,0.2-0.2,0.3-0.3,0.4c-0.2,0.3-0.4,0.6-0.6,0.9c-0.2,0.3-0.4,0.6-0.5,0.9c-0.1,0.2-0.2,0.4-0.3,0.5   c-0.3,0.5-0.5,1-0.8,1.5c-0.3,0.7-0.6,1.5-0.9,2.2c-0.6,1.9-1,3.9-1,5.9c0,0.1,0,0.2,0,0.2c0.1,10.8,9.5,20.8,26.5,28.2   c16.7,7.3,38.9,11.4,62.5,11.4c23.6,0,45.8-4,62.5-11.4c17-7.4,26.3-17.5,26.5-28.2c0-0.1,0-0.2,0-0.2   C214.3,159.7,214,157.7,213.3,155.8z M61.7,135.3c-0.5-0.3-1.1-0.5-1.6-0.8c-0.5,0.2-1,0.5-1.5,0.7c-0.5,0.3-1,0.5-1.5,0.8   c-2.6,1.3-4.9,2.8-7,4.3c-0.4,0.3-0.7,0.5-1.1,0.8c-0.4,0.3-0.8,0.6-1.1,0.9c0.4,0.3,0.8,0.6,1.1,0.9c0.4,0.3,0.7,0.5,1.1,0.8   c0.4-0.3,0.8-0.6,1.2-0.9c0.4-0.3,0.8-0.5,1.1-0.8c2.3-1.6,4.9-3,7.7-4.5c0.5-0.3,1.1-0.5,1.6-0.8c0.5-0.3,1-0.5,1.6-0.7   C62.8,135.8,62.2,135.5,61.7,135.3z M201.6,141.1c-0.3-0.3-0.7-0.5-1.1-0.8c-2.1-1.5-4.5-2.9-7-4.3c-0.5-0.3-1-0.5-1.5-0.8   c-0.5-0.3-1-0.5-1.5-0.7c-0.5,0.3-1,0.5-1.6,0.8c-0.5,0.3-1,0.5-1.6,0.7c0.5,0.2,1.1,0.5,1.6,0.7c0.5,0.3,1.1,0.5,1.6,0.8   c2.8,1.4,5.4,2.9,7.7,4.5c0.4,0.3,0.8,0.5,1.1,0.8c0.4,0.3,0.8,0.6,1.2,0.9c0.4-0.3,0.7-0.5,1.1-0.8c0.4-0.3,0.8-0.6,1.1-0.9   C202.4,141.7,202,141.4,201.6,141.1z" fill="#FFFFFF"></path></g><path xmlns="http://www.w3.org/2000/svg" d="M43.3,149.8v8.2c-1-1-1.9-2.1-2.6-3.2c-0.3-0.4-0.6-0.9-0.9-1.3c0,0.1-0.1,0.2-0.1,0.3l0.6,2  c0.7,1.9,1.7,3.7,3,5.4v0.8h-6.9v-12.2H43.3z" fill="#FFFFFF"></path><g xmlns="http://www.w3.org/2000/svg" fill="#FFFFFF"><path d="M214.3,149.8V162h-6.9v-0.8c1.3-1.8,2.3-3.6,3-5.4c0.3-0.7,0.5-1.3,0.6-2c0.1-0.3,0.1-0.5,0.2-0.8   c-0.1,0.2-0.2,0.3-0.3,0.5c-0.3,0.4-0.6,0.9-0.9,1.3c-0.8,1.1-1.7,2.2-2.6,3.2v-8.2H214.3z" fill="#FFFFFF"></path></g><g xmlns="http://www.w3.org/2000/svg" fill="#FFFFFF"><path class="st0" d="M212.9,149.6c0-1.2-0.1-2.3-0.4-3.4c-0.2-1.1-0.6-2.1-1-3.2c0-0.1-0.1-0.2-0.1-0.3   c-0.2-0.4-0.3-0.7-0.5-1.1c-0.2-0.5-0.5-0.9-0.8-1.4c-0.3-0.4-0.5-0.9-0.8-1.3c-0.2,0.4-0.5,0.9-0.8,1.3c-0.4,0.6-0.7,1.1-1.2,1.7   c-0.6,0.8-1.3,1.6-2,2.3c-0.3,0.3-0.6,0.7-1,1c-0.3,0.3-0.6,0.6-0.9,0.9c-13.7,12.7-43.6,21.5-78.2,21.5s-64.5-8.8-78.2-21.5   c-0.3-0.3-0.6-0.6-0.9-0.9c-0.3-0.3-0.7-0.7-1-1c-0.7-0.8-1.4-1.5-1.9-2.3c-0.4-0.6-0.8-1.1-1.2-1.7c-0.3-0.4-0.5-0.8-0.8-1.3   c-0.3,0.4-0.6,0.9-0.8,1.3c-0.3,0.5-0.5,0.9-0.8,1.4c-0.2,0.4-0.3,0.7-0.5,1.1c0,0.1-0.1,0.2-0.1,0.3c-0.4,1-0.8,2.1-1,3.2   c-0.3,1.1-0.4,2.3-0.4,3.5c0,0.1,0,0.1,0,0.2v0c0,1.3,0.1,2.5,0.4,3.8c0.2,0.7,0.4,1.5,0.6,2.2c0.2,0.7,0.5,1.3,0.8,2   c0.7,1.4,1.5,2.8,2.6,4.2c11.6,15.3,44.4,26.3,83.1,26.3c38.7,0,71.6-11,83.1-26.3c1-1.4,1.9-2.8,2.6-4.2c0.3-0.7,0.6-1.3,0.8-2   c0.3-0.7,0.5-1.4,0.6-2.2c0.3-1.3,0.4-2.5,0.4-3.8v0C212.9,149.7,212.9,149.6,212.9,149.6z M210.4,155.8c-0.7,1.9-1.7,3.7-3,5.4   c-11.2,14.9-43.7,25.7-82.1,25.7c-38.3,0-70.9-10.8-82-25.7c-1.3-1.8-2.3-3.6-3-5.4l-0.6-2c0-0.1,0.1-0.2,0.1-0.3   c0.3,0.4,0.6,0.9,0.9,1.3c0.8,1.1,1.7,2.2,2.6,3.2c4.5,4.8,11.1,9.2,19.6,12.9c16.7,7.3,38.9,11.4,62.5,11.4   c23.6,0,45.8-4,62.5-11.4c8.5-3.7,15.1-8.1,19.6-12.9c1-1,1.9-2.1,2.6-3.2c0.3-0.4,0.6-0.9,0.9-1.3c0.1-0.2,0.2-0.3,0.3-0.5   c0,0.3-0.1,0.5-0.2,0.8C210.9,154.5,210.7,155.1,210.4,155.8z M207.4,136.4c-0.1-0.1-0.2-0.3-0.3-0.4c-0.3-0.3-0.6-0.7-0.9-1   c-1.3-1.4-2.9-2.8-4.6-4.1c-0.4-0.3-0.8-0.6-1.2-0.9c-0.4-0.3-0.7-0.5-1.1-0.8c-0.4,0.3-0.8,0.5-1.1,0.8c-2.3,1.6-4.9,3.1-7.7,4.5   c-0.5,0.3-1,0.5-1.6,0.8c-0.5,0.3-1,0.5-1.6,0.7c-15.7,7-37.7,11.4-62,11.4S79,143,63.3,136c-0.5-0.2-1.1-0.5-1.6-0.7   c-0.5-0.3-1.1-0.5-1.6-0.8c-2.8-1.4-5.4-2.9-7.7-4.5c-0.4-0.3-0.8-0.5-1.1-0.8c-0.4,0.3-0.8,0.5-1.1,0.8c-0.4,0.3-0.8,0.6-1.2,0.9   c-1.7,1.3-3.2,2.7-4.6,4.1c-0.3,0.3-0.6,0.6-0.9,1c-0.1,0.1-0.2,0.2-0.3,0.3c-0.2,0.2-0.4,0.5-0.6,0.7c0.2,0.2,0.4,0.4,0.6,0.7   c0.1,0.1,0.2,0.2,0.3,0.3c1.3,1.3,2.7,2.6,4.3,3.9c0.4,0.3,0.8,0.6,1.1,0.9c0.4,0.3,0.7,0.5,1.1,0.8c3.6,2.5,7.8,4.9,12.7,7   c16.7,7.3,38.9,11.4,62.5,11.4c23.6,0,45.8-4,62.5-11.4c4.9-2.2,9.1-4.5,12.7-7c0.4-0.3,0.7-0.5,1.1-0.8c0.4-0.3,0.8-0.6,1.1-0.9   c1.6-1.3,3-2.6,4.3-3.9c0.1-0.1,0.2-0.2,0.3-0.3c0.2-0.2,0.4-0.4,0.6-0.6C207.8,136.8,207.6,136.6,207.4,136.4z" style="" fill="#FFFFFF"></path><path d="M51.3,129.3c-0.4-0.3-0.8-0.6-1.2-0.9c-0.4,0.3-0.7,0.5-1.1,0.8c-0.4,0.3-0.8,0.6-1.2,0.9   c-1.6,1.3-3,2.5-4.3,3.9c-0.1,0.1-0.2,0.2-0.3,0.3c-0.2,0.2-0.4,0.4-0.6,0.7c-0.3,0.4-0.6,0.7-0.9,1.1c0.3,0.4,0.6,0.7,0.9,1.1   c0.2,0.2,0.4,0.4,0.6,0.7c0.1,0.1,0.2,0.2,0.3,0.3c0.3-0.4,0.6-0.7,0.9-1.1c0.3-0.3,0.6-0.7,0.9-1c1.4-1.5,3-2.9,4.8-4.3   c0.4-0.3,0.8-0.6,1.2-0.9c0.4-0.3,0.8-0.5,1.1-0.8C52.1,129.8,51.7,129.5,51.3,129.3z M208,134.9c-0.2-0.2-0.4-0.4-0.6-0.6   c-0.1-0.1-0.2-0.2-0.3-0.3c-1.3-1.3-2.7-2.6-4.3-3.9c-0.4-0.3-0.8-0.6-1.2-0.9c-0.3-0.3-0.7-0.5-1.1-0.8c-0.4,0.3-0.8,0.6-1.2,0.9   c-0.4,0.3-0.8,0.5-1.1,0.8c0.4,0.3,0.8,0.5,1.1,0.8c0.4,0.3,0.8,0.6,1.2,0.9c1.8,1.4,3.4,2.8,4.8,4.3c0.3,0.3,0.6,0.6,0.9,1   c0.3,0.4,0.6,0.7,0.9,1.1c0.1-0.1,0.2-0.2,0.3-0.3c0.2-0.2,0.4-0.4,0.6-0.6c0.3-0.3,0.6-0.7,0.9-1.1   C208.6,135.6,208.3,135.3,208,134.9z M213.9,146.1c-0.2-1.2-0.6-2.3-1-3.4c0,0,0,0,0,0h0c-0.3-0.8-0.7-1.7-1.2-2.5   c-0.2-0.3-0.3-0.6-0.5-0.9c-0.1-0.2-0.2-0.3-0.3-0.5c-0.3-0.4-0.6-0.9-0.9-1.3c-0.2,0.5-0.5,1-0.7,1.4c-0.2,0.4-0.5,0.9-0.8,1.3   c0.3,0.4,0.5,0.8,0.8,1.3c0.2,0.4,0.4,0.8,0.6,1.2c0,0.1,0.1,0.2,0.1,0.2c0.5,1.1,0.8,2.1,1.1,3.2c0.3,1,0.4,2.1,0.4,3.2   c0,0.2,0,0.3,0,0.5v0c0,0.6,0,1.1-0.1,1.7c0,0.5-0.1,0.9-0.2,1.4c0,0.3-0.1,0.5-0.2,0.8c-0.2,0.7-0.4,1.3-0.6,2   c-0.7,1.9-1.7,3.7-3,5.4c-11.2,14.9-43.7,25.7-82.1,25.7c-38.3,0-70.9-10.8-82-25.7c-1.3-1.8-2.3-3.6-3-5.4l-0.6-2   c-0.1-0.3-0.1-0.5-0.2-0.8c-0.1-0.5-0.2-1-0.2-1.5c-0.1-0.6-0.1-1.1-0.1-1.7v0c0-0.2,0-0.3,0-0.5c0-1.1,0.2-2.1,0.4-3.2   c0.3-1.1,0.6-2.2,1.1-3.2c0-0.1,0.1-0.2,0.1-0.2c0.2-0.4,0.4-0.8,0.6-1.2c0.2-0.4,0.5-0.9,0.8-1.3c-0.3-0.4-0.5-0.8-0.8-1.3   c-0.3-0.5-0.5-1-0.7-1.4c-0.3,0.4-0.6,0.9-0.9,1.3c-0.1,0.2-0.2,0.3-0.3,0.5c-0.2,0.3-0.4,0.6-0.5,0.9c-0.5,0.8-0.8,1.7-1.2,2.5   c-0.5,1.1-0.8,2.3-1,3.5c-0.3,1.2-0.4,2.4-0.4,3.7v0c0,2,0.3,4,1,6c0.2,0.7,0.5,1.4,0.9,2.2c0.3,0.7,0.7,1.4,1,2.1   c0.4,0.7,0.8,1.3,1.2,2c4.3,6.1,11.9,11.7,22.4,16.3c16.7,7.3,38.9,11.4,62.5,11.4c23.6,0,45.8-4,62.5-11.4   c10.5-4.6,18.1-10.2,22.4-16.3c0.5-0.7,0.9-1.3,1.3-2c0.4-0.7,0.7-1.4,1-2c0.3-0.7,0.6-1.4,0.8-2.2c0.6-2,1-3.9,1-6v0   C214.3,148.6,214.2,147.3,213.9,146.1z" fill="#FFFFFF"></path></g><g xmlns="http://www.w3.org/2000/svg" fill="#FFFFFF"><path d="M212.5,138.6c-0.2-0.7-0.4-1.4-0.6-2.2c-0.2-0.7-0.5-1.3-0.8-2c-0.2,0.7-0.4,1.3-0.6,2   c-0.1,0.3-0.2,0.7-0.4,1c-0.2,0.5-0.5,1-0.7,1.4c-0.2,0.4-0.5,0.9-0.8,1.3c-0.4,0.6-0.7,1.1-1.2,1.7c-0.6,0.8-1.3,1.6-2,2.3   c-0.3,0.3-0.6,0.7-1,1c-0.3,0.3-0.6,0.6-0.9,0.9c-13.7,12.7-43.6,21.5-78.2,21.5s-64.5-8.8-78.2-21.5c-0.3-0.3-0.6-0.6-0.9-0.9   c-0.3-0.3-0.7-0.7-1-1c-0.7-0.8-1.4-1.5-1.9-2.3c-0.4-0.6-0.8-1.1-1.2-1.7c-0.3-0.4-0.5-0.8-0.8-1.3c-0.3-0.5-0.5-1-0.7-1.4   c-0.2-0.3-0.3-0.6-0.4-1c-0.3-0.7-0.5-1.3-0.6-2c-0.3,0.7-0.6,1.3-0.8,2c-0.3,0.7-0.5,1.4-0.6,2.2c-0.3,1.2-0.4,2.5-0.4,3.8   c0,0.1,0,0.2,0,0.2c0,1.2,0.1,2.3,0.4,3.5c0.2,1.1,0.6,2.1,1,3.2c0.1,0.2,0.1,0.3,0.2,0.5c0.1,0.3,0.3,0.6,0.4,0.9   c0.2,0.5,0.5,0.9,0.8,1.4c0.3,0.4,0.5,0.9,0.8,1.3c0.6,0.9,1.2,1.7,1.9,2.5c12.4,14.6,44.5,25,82,25s69.6-10.4,82.1-25   c0.7-0.8,1.4-1.7,1.9-2.6c0.3-0.4,0.6-0.8,0.8-1.3c0.3-0.5,0.5-0.9,0.8-1.4c0.1-0.3,0.3-0.6,0.4-0.9c0.1-0.2,0.2-0.3,0.2-0.5   c0.4-1,0.8-2.1,1-3.2c0.3-1.1,0.4-2.3,0.4-3.4c0,0,0,0,0,0c0-0.1,0-0.2,0-0.2C212.9,141.2,212.8,139.9,212.5,138.6z M209.8,132.3   c-0.3-0.4-0.5-0.8-0.8-1.2c-0.1-0.2-0.3-0.4-0.4-0.6c-0.8-1.1-1.7-2.1-2.7-3.2c-0.3-0.3-0.6-0.7-1-1c-0.3-0.3-0.6-0.6-1-0.9   c-0.3,0.3-0.6,0.6-1,0.9c-0.8,0.7-1.6,1.4-2.5,2c-0.4,0.3-0.8,0.6-1.2,0.9c-0.4,0.3-0.8,0.5-1.1,0.8c-2.3,1.6-4.9,3.1-7.7,4.5   c-0.5,0.3-1,0.5-1.6,0.8c-0.5,0.3-1,0.5-1.6,0.7c-15.7,7-37.7,11.4-62,11.4S79,143,63.3,136c-0.5-0.2-1.1-0.5-1.6-0.7   c-0.5-0.3-1.1-0.5-1.6-0.8c-2.8-1.4-5.4-2.9-7.7-4.5c-0.4-0.3-0.8-0.5-1.1-0.8c-0.4-0.3-0.8-0.6-1.2-0.9c-0.9-0.7-1.7-1.3-2.5-2   c-0.3-0.3-0.7-0.6-1-0.9c-0.3,0.3-0.6,0.6-1,0.9c-0.3,0.3-0.7,0.6-1,1c-1,1-1.9,2.1-2.7,3.2c-0.1,0.2-0.3,0.4-0.4,0.6   c-0.3,0.4-0.6,0.8-0.8,1.2c-0.3,0.5-0.5,0.9-0.8,1.4c0.3,0.4,0.6,0.8,0.9,1.3c0.3,0.4,0.5,0.7,0.8,1.1c0.3,0.4,0.6,0.7,0.9,1.1   c0.2,0.2,0.4,0.4,0.6,0.7c0.1,0.1,0.2,0.2,0.3,0.3c1.3,1.3,2.7,2.6,4.3,3.9c0.4,0.3,0.8,0.6,1.1,0.9c0.4,0.3,0.7,0.5,1.1,0.8   c3.6,2.5,7.8,4.9,12.7,7c16.7,7.3,38.9,11.4,62.5,11.4c23.6,0,45.8-4,62.5-11.4c4.9-2.2,9.1-4.5,12.7-7c0.4-0.3,0.7-0.5,1.1-0.8   c0.4-0.3,0.8-0.6,1.1-0.9c1.6-1.3,3-2.6,4.3-3.9c0.1-0.1,0.2-0.2,0.3-0.3c0.2-0.2,0.4-0.4,0.6-0.6c0.3-0.3,0.6-0.7,0.9-1.1   c0.3-0.4,0.6-0.7,0.9-1.1c0.3-0.4,0.6-0.8,0.9-1.3C210.4,133.2,210.1,132.8,209.8,132.3z" fill="#FFFFFF"></path><path d="M213.3,136.5c-0.2-0.7-0.5-1.5-0.8-2.2c-0.3-0.7-0.7-1.3-1-2c0,0,0,0,0,0c-0.3-0.5-0.5-0.9-0.8-1.3   c-0.1-0.2-0.2-0.3-0.3-0.4c-0.2-0.3-0.4-0.5-0.6-0.8c-0.8-1.1-1.8-2.3-2.9-3.3c-0.3-0.3-0.6-0.7-1-1c-0.3-0.3-0.6-0.6-1-0.9   c-0.3,0.3-0.6,0.7-1,1c-0.3,0.3-0.6,0.6-1,0.9c0.3,0.3,0.6,0.6,1,0.9c0.4,0.3,0.7,0.7,1,1c0.9,0.9,1.7,1.9,2.5,2.9   c0.3,0.4,0.6,0.8,0.9,1.2c0.3,0.4,0.5,0.8,0.8,1.2c0.3,0.5,0.5,0.9,0.7,1.4c0.3-0.4,0.6-0.8,0.9-1.3c0.3-0.4,0.6-0.9,0.8-1.3   c-0.1,0.7-0.2,1.4-0.4,2.2c-0.2,0.7-0.4,1.3-0.6,2c0.3,0.7,0.5,1.3,0.6,2c0.1,0.3,0.1,0.5,0.2,0.8c0.1,0.5,0.2,0.9,0.2,1.4   c0.1,0.6,0.1,1.1,0.1,1.7c0,0.1,0,0.2,0,0.2c0,0.1,0,0.2,0,0.3c0,1.1-0.2,2.1-0.4,3.2c-0.3,1.1-0.6,2.2-1.1,3.2   c-0.1,0.1-0.1,0.3-0.2,0.4c-0.2,0.3-0.3,0.7-0.5,1c-0.2,0.4-0.5,0.9-0.8,1.3c-0.4,0.6-0.8,1.2-1.2,1.7   c-11.2,14.9-43.7,25.7-82.1,25.7s-70.9-10.8-82-25.7c-0.4-0.6-0.8-1.1-1.2-1.7c-0.3-0.4-0.5-0.8-0.8-1.3c-0.2-0.3-0.4-0.7-0.5-1   c-0.1-0.1-0.1-0.3-0.2-0.4c-0.5-1.1-0.8-2.1-1.1-3.2c-0.3-1-0.4-2.1-0.4-3.2c0-0.1,0-0.2,0-0.3c0-0.1,0-0.2,0-0.2   c0-0.6,0-1.1,0.1-1.7c0-0.5,0.1-1,0.2-1.5c0-0.3,0.1-0.5,0.2-0.8c0.2-0.7,0.4-1.3,0.6-2c-0.3-0.7-0.5-1.3-0.6-2   c-0.2-0.7-0.3-1.4-0.4-2.1c0.3,0.4,0.5,0.9,0.8,1.3c0.3,0.4,0.6,0.8,0.9,1.3c0.2-0.5,0.5-0.9,0.7-1.4c0.2-0.4,0.5-0.8,0.8-1.2   c0.3-0.4,0.6-0.8,0.9-1.2c0.7-1,1.5-1.9,2.4-2.8c0.3-0.3,0.6-0.7,1-1c0.3-0.3,0.6-0.6,1-0.9c-0.3-0.3-0.7-0.6-1-0.9   c-0.3-0.3-0.7-0.7-1-1c-0.3,0.3-0.7,0.6-1,0.9c-0.3,0.3-0.7,0.7-1,1c-1.1,1.1-2,2.2-2.8,3.3c-0.2,0.3-0.4,0.5-0.6,0.8   c-0.1,0.1-0.2,0.3-0.3,0.4c-0.3,0.4-0.6,0.9-0.8,1.3c0,0,0,0,0,0c-0.4,0.7-0.7,1.3-1,2c-0.3,0.7-0.6,1.5-0.9,2.2   c-0.6,2-1,3.9-1,5.9c0,0.1,0,0.2,0,0.2c0,1.2,0.1,2.3,0.4,3.5c0.2,1.2,0.6,2.3,1,3.5c0,0.1,0,0.1,0.1,0.2c0.3,0.8,0.7,1.5,1.1,2.3   c0.2,0.3,0.3,0.6,0.5,0.9c0.1,0.2,0.2,0.3,0.3,0.5c0.3,0.4,0.6,0.9,0.9,1.3c0.8,1.1,1.7,2.2,2.6,3.2c4.5,4.8,11.1,9.2,19.6,12.9   c16.7,7.3,38.9,11.4,62.5,11.4c23.6,0,45.8-4,62.5-11.4c8.5-3.7,15.1-8.1,19.6-12.9c1-1,1.9-2.1,2.6-3.2c0.3-0.4,0.6-0.9,0.9-1.3   c0.1-0.2,0.2-0.3,0.3-0.5c0.2-0.3,0.4-0.6,0.5-0.9c0.4-0.8,0.8-1.5,1.1-2.3c0-0.1,0.1-0.1,0.1-0.2c0.5-1.1,0.8-2.3,1-3.4   c0.2-1.1,0.4-2.3,0.4-3.5c0-0.1,0-0.2,0-0.2C214.3,140.4,214,138.4,213.3,136.5z" fill="#FFFFFF"></path></g><path xmlns="http://www.w3.org/2000/svg" d="M43.3,130.5v7.2c-0.2-0.2-0.4-0.4-0.6-0.7c-0.3-0.4-0.6-0.7-0.9-1.1c-0.3-0.4-0.6-0.7-0.8-1.1  c-0.3-0.4-0.6-0.8-0.9-1.3c-0.3-0.4-0.6-0.9-0.8-1.3c0.1,0.7,0.2,1.4,0.4,2.1c0.2,0.7,0.4,1.3,0.6,2c0.1,0.3,0.2,0.7,0.4,1  c0.2,0.5,0.4,1,0.7,1.4c0.2,0.4,0.5,0.9,0.8,1.3c0.4,0.6,0.8,1.2,1.2,1.7v0.8h-6.9v-12.2H43.3z" fill="#FFFFFF"></path><g xmlns="http://www.w3.org/2000/svg" fill="#FFFFFF"><path d="M214.3,130.5v12.2h-6.9v-0.8c0.4-0.6,0.8-1.1,1.2-1.7c0.3-0.4,0.5-0.8,0.8-1.3c0.3-0.5,0.5-1,0.7-1.4   c0.1-0.3,0.3-0.7,0.4-1c0.3-0.7,0.5-1.3,0.6-2c0.2-0.7,0.3-1.4,0.4-2.2c-0.3,0.5-0.5,0.9-0.8,1.3c-0.3,0.4-0.6,0.8-0.9,1.3   c-0.3,0.4-0.6,0.7-0.9,1.1c-0.3,0.4-0.6,0.7-0.9,1.1c-0.2,0.2-0.4,0.4-0.6,0.6v-7.2H214.3z" fill="#FFFFFF"></path></g><g xmlns="http://www.w3.org/2000/svg" fill="#FFFFFF"><path class="st0" d="M206.2,137c-0.3-0.3-0.6-0.7-0.9-1c-1.4,1.5-3,2.9-4.8,4.3c-0.4,0.3-0.8,0.6-1.2,0.9   c-0.4,0.3-0.8,0.5-1.1,0.8c-2.3-1.6-4.9-3.1-7.7-4.5c-0.5-0.3-1.1-0.5-1.6-0.8c-16,7.4-38.6,12-63.6,12s-47.7-4.6-63.6-12   c-0.5,0.3-1.1,0.5-1.6,0.8c-2.8,1.4-5.4,2.9-7.7,4.5c-0.4,0.3-0.8,0.5-1.1,0.8c-0.4,0.3-0.8,0.6-1.2,0.9c3.6,2.5,7.8,4.9,12.7,7   c16.7,7.3,38.9,11.4,62.5,11.4c23.6,0,45.8-4,62.5-11.4c4.9-2.2,9.1-4.5,12.7-7c0.4-0.3,0.7-0.5,1.1-0.8c0.4-0.3,0.8-0.6,1.1-0.9   c1.6-1.3,3-2.6,4.3-3.9C206.8,137.7,206.5,137.3,206.2,137z M206.2,137c-0.3-0.3-0.6-0.7-0.9-1c-1.4,1.5-3,2.9-4.8,4.3   c-0.4,0.3-0.8,0.6-1.2,0.9c-0.4,0.3-0.8,0.5-1.1,0.8c-2.3-1.6-4.9-3.1-7.7-4.5c-0.5-0.3-1.1-0.5-1.6-0.8c-16,7.4-38.6,12-63.6,12   s-47.7-4.6-63.6-12c-0.5,0.3-1.1,0.5-1.6,0.8c-2.8,1.4-5.4,2.9-7.7,4.5c-0.4,0.3-0.8,0.5-1.1,0.8c-0.4,0.3-0.8,0.6-1.2,0.9   c3.6,2.5,7.8,4.9,12.7,7c16.7,7.3,38.9,11.4,62.5,11.4c23.6,0,45.8-4,62.5-11.4c4.9-2.2,9.1-4.5,12.7-7c0.4-0.3,0.7-0.5,1.1-0.8   c0.4-0.3,0.8-0.6,1.1-0.9c1.6-1.3,3-2.6,4.3-3.9C206.8,137.7,206.5,137.3,206.2,137z M206.2,137c-0.3-0.3-0.6-0.7-0.9-1   c-1.4,1.5-3,2.9-4.8,4.3c-0.4,0.3-0.8,0.6-1.2,0.9c-0.4,0.3-0.8,0.5-1.1,0.8c-2.3-1.6-4.9-3.1-7.7-4.5c-0.5-0.3-1.1-0.5-1.6-0.8   c-16,7.4-38.6,12-63.6,12s-47.7-4.6-63.6-12c-0.5-0.2-1-0.5-1.5-0.7c-0.5-0.3-1-0.5-1.6-0.8c-2.7-1.4-5.1-2.8-7.3-4.4   c-0.4,0.3-0.8,0.6-1.2,0.9c-1.8,1.4-3.4,2.8-4.8,4.3c-0.3-0.3-0.6-0.7-0.9-1c-0.3,0.3-0.6,0.6-0.9,1c-0.1,0.1-0.2,0.2-0.3,0.3v1.4   c0.1,0.1,0.2,0.2,0.3,0.3c1.3,1.3,2.7,2.6,4.3,3.9c0.4,0.3,0.8,0.6,1.1,0.9c0.4,0.3,0.7,0.5,1.1,0.8c3.6,2.5,7.8,4.9,12.7,7   c16.7,7.3,38.9,11.4,62.5,11.4c23.6,0,45.8-4,62.5-11.4c4.9-2.2,9.1-4.5,12.7-7c0.4-0.3,0.7-0.5,1.1-0.8c0.4-0.3,0.8-0.6,1.1-0.9   c1.6-1.3,3-2.6,4.3-3.9C206.8,137.7,206.5,137.3,206.2,137z M206.2,137c-0.3-0.3-0.6-0.7-0.9-1c-1.4,1.5-3,2.9-4.8,4.3   c-0.4,0.3-0.8,0.6-1.2,0.9c-0.4,0.3-0.8,0.5-1.1,0.8c-2.3-1.6-4.9-3.1-7.7-4.5c-0.5-0.3-1.1-0.5-1.6-0.8c-16,7.4-38.6,12-63.6,12   s-47.7-4.6-63.6-12c-0.5-0.2-1-0.5-1.5-0.7c-0.5-0.3-1-0.5-1.6-0.8c-2.7-1.4-5.1-2.8-7.3-4.4c-0.4,0.3-0.8,0.6-1.2,0.9   c-1.8,1.4-3.4,2.8-4.8,4.3c-0.3-0.3-0.6-0.7-0.9-1c-0.3,0.3-0.6,0.6-0.9,1c-0.1,0.1-0.2,0.2-0.3,0.3v1.4c0.1,0.1,0.2,0.2,0.3,0.3   c1.3,1.3,2.7,2.6,4.3,3.9c0.4,0.3,0.8,0.6,1.1,0.9c0.4,0.3,0.7,0.5,1.1,0.8c3.6,2.5,7.8,4.9,12.7,7c16.7,7.3,38.9,11.4,62.5,11.4   c23.6,0,45.8-4,62.5-11.4c4.9-2.2,9.1-4.5,12.7-7c0.4-0.3,0.7-0.5,1.1-0.8c0.4-0.3,0.8-0.6,1.1-0.9c1.6-1.3,3-2.6,4.3-3.9   C206.8,137.7,206.5,137.3,206.2,137z M212.9,129.4c-0.1-1-0.2-2-0.5-3c-0.2-0.9-0.5-1.9-0.9-2.8c-0.1-0.4-0.3-0.8-0.5-1.1   c-0.1-0.2-0.2-0.4-0.3-0.6c-0.2-0.5-0.5-0.9-0.8-1.4c-0.3-0.4-0.5-0.8-0.8-1.3c-0.2,0.4-0.5,0.8-0.8,1.2v0   c-0.3,0.4-0.6,0.8-0.9,1.2c-0.7,1-1.5,1.9-2.4,2.8c-0.3,0.3-0.6,0.7-1,1c-0.3,0.3-0.6,0.6-1,0.9c-0.8,0.7-1.6,1.4-2.5,2   c-0.4,0.3-0.8,0.6-1.2,0.9c-0.4,0.3-0.8,0.5-1.1,0.8c-2.3,1.6-4.9,3.1-7.7,4.5c-0.5,0.3-1,0.5-1.6,0.8c-0.5,0.3-1,0.5-1.6,0.7   c-15.7,7-37.7,11.4-62,11.4S79,143,63.3,136c-0.5-0.2-1.1-0.5-1.6-0.7c-0.5-0.3-1.1-0.5-1.6-0.8c-2.8-1.4-5.4-2.9-7.7-4.5   c-0.4-0.3-0.8-0.5-1.1-0.8c-0.4-0.3-0.8-0.6-1.2-0.9c-0.9-0.7-1.7-1.3-2.5-2c-0.3-0.3-0.7-0.6-1-0.9c-0.3-0.3-0.7-0.7-1-1   c-0.9-0.9-1.7-1.9-2.5-2.9c-0.3-0.4-0.6-0.8-0.8-1.2v0c-0.3-0.4-0.5-0.8-0.8-1.2c-0.3,0.4-0.6,0.8-0.8,1.3   c-0.3,0.5-0.5,0.9-0.8,1.4c-0.1,0.2-0.2,0.4-0.3,0.6c-0.2,0.4-0.4,0.8-0.5,1.1c-0.4,0.9-0.7,1.9-0.9,2.8c-0.3,1-0.4,2-0.5,3.1   c0,0.4,0,0.7,0,1.1v0c0,1.3,0.1,2.5,0.4,3.8c0.2,0.7,0.4,1.5,0.6,2.2c0.2,0.7,0.5,1.3,0.8,2c0,0.1,0.1,0.2,0.1,0.3   c0.2,0.5,0.5,1,0.8,1.4c0.3,0.4,0.5,0.8,0.8,1.3c0.3,0.4,0.5,0.8,0.9,1.2c0.6,0.8,1.3,1.7,2.1,2.5c0.3,0.3,0.6,0.7,1,1   c0.3,0.3,0.6,0.6,0.9,0.9c14.1,13,44.2,22,79.2,22s65.1-9,79.2-22c0.3-0.3,0.6-0.6,0.9-0.9c0.3-0.3,0.7-0.7,1-1   c0.8-0.8,1.4-1.6,2.1-2.5c0.3-0.4,0.6-0.8,0.9-1.2c0.3-0.4,0.6-0.9,0.8-1.3c0.3-0.5,0.5-0.9,0.8-1.4c0.1-0.1,0.1-0.2,0.1-0.3   c0.3-0.7,0.6-1.3,0.8-2c0.3-0.7,0.5-1.4,0.6-2.2c0.3-1.3,0.4-2.5,0.4-3.8v0C212.9,130.1,212.9,129.8,212.9,129.4z M210.4,136.5   c-0.1,0.3-0.2,0.7-0.4,1c-0.2,0.5-0.5,1-0.7,1.4c-0.2,0.4-0.5,0.9-0.8,1.3c-0.4,0.6-0.7,1.1-1.2,1.7c-0.6,0.8-1.3,1.6-2,2.3   c-0.3,0.3-0.6,0.7-1,1c-0.3,0.3-0.6,0.6-0.9,0.9c-13.7,12.7-43.6,21.5-78.2,21.5s-64.5-8.8-78.2-21.5c-0.3-0.3-0.6-0.6-0.9-0.9   c-0.3-0.3-0.7-0.7-1-1c-0.7-0.8-1.4-1.5-1.9-2.3c-0.4-0.6-0.8-1.1-1.2-1.7c-0.3-0.4-0.5-0.8-0.8-1.3c-0.3-0.5-0.5-1-0.7-1.4   c-0.2-0.3-0.3-0.6-0.4-1c-0.3-0.7-0.5-1.3-0.6-2c-0.2-0.7-0.3-1.4-0.4-2.1c0.3,0.4,0.5,0.9,0.8,1.3c0.3,0.4,0.6,0.8,0.9,1.3   c0.3,0.4,0.5,0.7,0.8,1.1c0.3,0.4,0.6,0.7,0.9,1.1c0.2,0.2,0.4,0.4,0.6,0.7c0.1,0.1,0.2,0.2,0.3,0.3c1.3,1.3,2.7,2.6,4.3,3.9   c0.4,0.3,0.8,0.6,1.1,0.9c0.4,0.3,0.7,0.5,1.1,0.8c3.6,2.5,7.8,4.9,12.7,7c16.7,7.3,38.9,11.4,62.5,11.4c23.6,0,45.8-4,62.5-11.4   c4.9-2.2,9.1-4.5,12.7-7c0.4-0.3,0.7-0.5,1.1-0.8c0.4-0.3,0.8-0.6,1.1-0.9c1.6-1.3,3-2.6,4.3-3.9c0.1-0.1,0.2-0.2,0.3-0.3   c0.2-0.2,0.4-0.4,0.6-0.6c0.3-0.3,0.6-0.7,0.9-1.1c0.3-0.4,0.6-0.7,0.9-1.1c0.3-0.4,0.6-0.8,0.9-1.3c0.3-0.4,0.6-0.9,0.8-1.3   c-0.1,0.7-0.2,1.4-0.4,2.2C210.9,135.2,210.7,135.8,210.4,136.5z M206.2,137c-0.3-0.3-0.6-0.7-0.9-1c-1.4,1.5-3,2.9-4.8,4.3   c-0.4,0.3-0.8,0.6-1.2,0.9c-0.4,0.3-0.8,0.5-1.1,0.8c-2.3-1.6-4.9-3.1-7.7-4.5c-0.5-0.3-1.1-0.5-1.6-0.8c-16,7.4-38.6,12-63.6,12   s-47.7-4.6-63.6-12c-0.5-0.2-1-0.5-1.5-0.7c-0.5-0.3-1-0.5-1.6-0.8c-2.7-1.4-5.1-2.8-7.3-4.4c-0.4,0.3-0.8,0.6-1.2,0.9   c-1.8,1.4-3.4,2.8-4.8,4.3c-0.3-0.3-0.6-0.7-0.9-1c-0.3,0.3-0.6,0.6-0.9,1c-0.1,0.1-0.2,0.2-0.3,0.3v1.4c0.1,0.1,0.2,0.2,0.3,0.3   c1.3,1.3,2.7,2.6,4.3,3.9c0.4,0.3,0.8,0.6,1.1,0.9c0.4,0.3,0.7,0.5,1.1,0.8c3.6,2.5,7.8,4.9,12.7,7c16.7,7.3,38.9,11.4,62.5,11.4   c23.6,0,45.8-4,62.5-11.4c4.9-2.2,9.1-4.5,12.7-7c0.4-0.3,0.7-0.5,1.1-0.8c0.4-0.3,0.8-0.6,1.1-0.9c1.6-1.3,3-2.6,4.3-3.9   C206.8,137.7,206.5,137.3,206.2,137z M203.6,146.1c-13.7,12.7-43.6,21.5-78.2,21.5s-64.5-8.8-78.2-21.5c-0.3,0.3-0.6,0.6-0.9,0.9   c14.1,13,44.2,22,79.2,22s65.1-9,79.2-22C204.2,146.7,203.9,146.4,203.6,146.1z M206.2,137c-0.3-0.3-0.6-0.7-0.9-1   c-1.4,1.5-3,2.9-4.8,4.3c-0.4,0.3-0.8,0.6-1.2,0.9c-0.4,0.3-0.8,0.5-1.1,0.8c-2.3-1.6-4.9-3.1-7.7-4.5c-0.5-0.3-1.1-0.5-1.6-0.8   c-16,7.4-38.6,12-63.6,12s-47.7-4.6-63.6-12c-0.5,0.3-1.1,0.5-1.6,0.8c-2.8,1.4-5.4,2.9-7.7,4.5c-0.4,0.3-0.8,0.5-1.1,0.8   c-0.4,0.3-0.8,0.6-1.2,0.9c3.6,2.5,7.8,4.9,12.7,7c16.7,7.3,38.9,11.4,62.5,11.4c23.6,0,45.8-4,62.5-11.4c4.9-2.2,9.1-4.5,12.7-7   c0.4-0.3,0.7-0.5,1.1-0.8c0.4-0.3,0.8-0.6,1.1-0.9c1.6-1.3,3-2.6,4.3-3.9C206.8,137.7,206.5,137.3,206.2,137z M206.2,137   c-0.3-0.3-0.6-0.7-0.9-1c-1.4,1.5-3,2.9-4.8,4.3c-0.4,0.3-0.8,0.6-1.2,0.9c-0.4,0.3-0.8,0.5-1.1,0.8c-2.3-1.6-4.9-3.1-7.7-4.5   c-0.5-0.3-1.1-0.5-1.6-0.8c-16,7.4-38.6,12-63.6,12s-47.7-4.6-63.6-12c-0.5,0.3-1.1,0.5-1.6,0.8c-2.8,1.4-5.4,2.9-7.7,4.5   c-0.4,0.3-0.8,0.5-1.1,0.8c-0.4,0.3-0.8,0.6-1.2,0.9c3.6,2.5,7.8,4.9,12.7,7c16.7,7.3,38.9,11.4,62.5,11.4c23.6,0,45.8-4,62.5-11.4   c4.9-2.2,9.1-4.5,12.7-7c0.4-0.3,0.7-0.5,1.1-0.8c0.4-0.3,0.8-0.6,1.1-0.9c1.6-1.3,3-2.6,4.3-3.9   C206.8,137.7,206.5,137.3,206.2,137z M206.2,137c-0.3-0.3-0.6-0.7-0.9-1c-1.4,1.5-3,2.9-4.8,4.3c-0.4,0.3-0.8,0.6-1.2,0.9   c-0.4,0.3-0.8,0.5-1.1,0.8c-2.3-1.6-4.9-3.1-7.7-4.5c-0.5-0.3-1.1-0.5-1.6-0.8c-16,7.4-38.6,12-63.6,12s-47.7-4.6-63.6-12   c-0.5,0.3-1.1,0.5-1.6,0.8c-2.8,1.4-5.4,2.9-7.7,4.5c-0.4,0.3-0.8,0.5-1.1,0.8c-0.4,0.3-0.8,0.6-1.2,0.9c3.6,2.5,7.8,4.9,12.7,7   c16.7,7.3,38.9,11.4,62.5,11.4c23.6,0,45.8-4,62.5-11.4c4.9-2.2,9.1-4.5,12.7-7c0.4-0.3,0.7-0.5,1.1-0.8c0.4-0.3,0.8-0.6,1.1-0.9   c1.6-1.3,3-2.6,4.3-3.9C206.8,137.7,206.5,137.3,206.2,137z" style="" fill="#FFFFFF"></path><path d="M213.8,126.4c-0.2-1-0.5-2-0.9-3c-0.1-0.3-0.3-0.6-0.4-0.9c-0.3-0.7-0.6-1.3-1-2c0,0,0,0,0,0   c-0.3-0.4-0.5-0.9-0.8-1.3c-0.3-0.4-0.6-0.8-0.9-1.3c-0.2,0.5-0.5,0.9-0.7,1.4c-0.2,0.4-0.5,0.8-0.8,1.2v0c0.3,0.4,0.5,0.8,0.8,1.2   c0.1,0.3,0.3,0.5,0.4,0.8c0.1,0.2,0.2,0.4,0.3,0.6c0.5,1.1,0.9,2.2,1.2,3.3c0.3,0.9,0.4,1.9,0.5,2.8c0.1,0.4,0.1,0.9,0.1,1.3v0   c0,0.6,0,1.2-0.1,1.7c0,0,0,0,0,0.1c-0.1,0.7-0.2,1.4-0.4,2.2c-0.2,0.7-0.4,1.3-0.6,2c-0.1,0.3-0.2,0.7-0.4,1   c-0.2,0.5-0.5,1-0.7,1.4c-0.2,0.4-0.5,0.9-0.8,1.3c-0.4,0.6-0.7,1.1-1.2,1.7c-0.6,0.8-1.3,1.6-2,2.3c-0.3,0.3-0.6,0.7-1,1   c-0.3,0.3-0.6,0.6-0.9,0.9c-13.7,12.7-43.6,21.5-78.2,21.5s-64.5-8.8-78.2-21.5c-0.3-0.3-0.6-0.6-0.9-0.9c-0.3-0.3-0.7-0.7-1-1   c-0.7-0.8-1.4-1.5-1.9-2.3c-0.4-0.6-0.8-1.1-1.2-1.7c-0.3-0.4-0.5-0.8-0.8-1.3c-0.3-0.5-0.5-1-0.7-1.4c-0.2-0.3-0.3-0.6-0.4-1   c-0.3-0.7-0.5-1.3-0.6-2c-0.2-0.7-0.3-1.4-0.4-2.1c0,0,0-0.1,0-0.1c-0.1-0.6-0.1-1.1-0.1-1.7v0c0-0.5,0-0.9,0.1-1.3   c0.1-0.9,0.2-1.9,0.5-2.8c0.3-1.1,0.7-2.2,1.2-3.3c0.1-0.2,0.2-0.4,0.3-0.6c0.1-0.3,0.3-0.5,0.4-0.8c0.2-0.4,0.5-0.8,0.8-1.2v0   c-0.3-0.4-0.5-0.8-0.8-1.2c-0.3-0.4-0.5-0.9-0.7-1.4c-0.3,0.4-0.6,0.8-0.9,1.3c-0.3,0.4-0.6,0.9-0.8,1.3c0,0,0,0,0,0.1   c-0.4,0.7-0.7,1.3-1,2c-0.1,0.3-0.3,0.6-0.4,0.9c-0.4,1-0.7,2-1,3c-0.3,1.4-0.5,2.8-0.5,4.2v0c0,2,0.3,4,1,6   c0.2,0.7,0.5,1.5,0.9,2.2c0.2,0.5,0.5,1,0.8,1.5c0.1,0.2,0.2,0.4,0.3,0.5c0.2,0.3,0.3,0.6,0.5,0.9c0.2,0.4,0.5,0.7,0.7,1.1   c0.1,0.1,0.1,0.2,0.2,0.2c0.8,1.1,1.7,2.2,2.7,3.2c0.3,0.3,0.6,0.7,1,1c0.3,0.3,0.6,0.6,0.9,0.9c4.4,4,10.3,7.8,17.6,11   c16.7,7.3,38.9,11.4,62.5,11.4c23.6,0,45.8-4,62.5-11.4c7.3-3.2,13.3-6.9,17.6-11c0.3-0.3,0.6-0.6,0.9-0.9c0.3-0.3,0.7-0.6,1-1   c1-1,1.9-2.1,2.7-3.2c0.1-0.1,0.1-0.2,0.2-0.2c0.3-0.4,0.5-0.7,0.7-1.1c0.2-0.3,0.4-0.6,0.5-0.9c0.1-0.2,0.2-0.3,0.3-0.5   c0.3-0.5,0.5-1,0.8-1.5c0.3-0.7,0.6-1.4,0.8-2.2c0.6-2,1-3.9,1-6v0C214.3,129.1,214.1,127.7,213.8,126.4z" fill="#FFFFFF"></path></g><g xmlns="http://www.w3.org/2000/svg" fill="#FFFFFF"><path d="M212.9,122.2c0,0.1,0,0.2,0,0.2c0,0.3,0,0.6,0,0.9c-0.1,1-0.2,2-0.5,3c-0.2,0.9-0.5,1.9-0.9,2.8   c-0.2,0.5-0.4,0.9-0.6,1.3c-0.1,0.2-0.1,0.3-0.2,0.4c-0.2,0.5-0.5,0.9-0.8,1.4c-0.3,0.4-0.5,0.8-0.8,1.2c-0.3,0.5-0.7,0.9-1,1.4   c-0.2,0.2-0.4,0.5-0.6,0.7l-0.3,0.4c-0.3,0.3-0.6,0.7-0.9,1c-1.3,1.4-2.9,2.8-4.6,4.1c-0.4,0.3-0.8,0.6-1.2,0.9   c-0.4,0.3-0.7,0.5-1.1,0.8c-15.5,10.8-42.9,17.9-74,17.9c-31.2,0-58.5-7.2-74-17.9c-0.4-0.3-0.8-0.5-1.1-0.8   c-0.4-0.3-0.8-0.6-1.2-0.9c-1.7-1.3-3.2-2.7-4.5-4.1c-0.3-0.3-0.6-0.6-0.9-1c-0.1-0.1-0.2-0.2-0.3-0.3c-0.2-0.2-0.4-0.5-0.6-0.7   c-0.4-0.4-0.7-0.9-1-1.4c-0.3-0.4-0.6-0.8-0.8-1.2c-0.3-0.5-0.5-0.9-0.8-1.4c-0.1-0.2-0.2-0.3-0.2-0.4c-0.2-0.5-0.4-0.9-0.6-1.3   c-0.4-0.9-0.7-1.9-0.9-2.8c-0.3-1-0.4-2-0.5-3c0-0.3,0-0.6,0-0.9v-0.2c0-1.3,0.1-2.5,0.4-3.8c0.2-0.7,0.4-1.5,0.6-2.2   c0.2-0.7,0.5-1.3,0.8-2c0.2,0.7,0.4,1.3,0.6,2c0.2,0.5,0.4,1,0.7,1.6c0.2,0.5,0.5,0.9,0.7,1.4c0.2,0.4,0.5,0.8,0.8,1.2v0   c0.3,0.4,0.5,0.8,0.8,1.2c0.7,1,1.5,1.9,2.5,2.9c0.3,0.3,0.6,0.7,1,1c0.3,0.3,0.6,0.6,1,0.9c0.8,0.7,1.6,1.4,2.5,2   c0.4,0.3,0.8,0.6,1.2,0.9c0.4,0.3,0.8,0.5,1.1,0.8c2.3,1.6,4.9,3,7.7,4.5c0.5,0.3,1.1,0.5,1.6,0.8c0.5,0.3,1,0.5,1.6,0.7   c15.7,7,37.7,11.4,62,11.4s46.4-4.4,62-11.4c0.5-0.2,1.1-0.5,1.6-0.7c0.5-0.3,1.1-0.5,1.6-0.8c2.8-1.4,5.4-2.9,7.7-4.5   c0.4-0.3,0.8-0.5,1.1-0.8c0.4-0.3,0.8-0.6,1.2-0.9c0.9-0.7,1.7-1.3,2.5-2c0.3-0.3,0.6-0.6,1-0.9c0.4-0.3,0.7-0.7,1-1   c0.9-0.9,1.7-1.9,2.4-2.8c0.3-0.4,0.6-0.8,0.9-1.2v0c0.3-0.4,0.5-0.8,0.8-1.2c0.3-0.4,0.5-0.9,0.7-1.4c0.3-0.5,0.5-1,0.7-1.6   c0.3-0.7,0.5-1.3,0.6-2c0.3,0.7,0.6,1.3,0.8,2c0.3,0.7,0.5,1.4,0.6,2.2C212.8,119.6,212.9,120.9,212.9,122.2z" fill="#FFFFFF"></path><path d="M213.3,116.2c-0.2-0.7-0.5-1.5-0.8-2.2c-0.3-0.7-0.7-1.4-1-2.1c-0.1,0.7-0.2,1.5-0.4,2.2   c-0.2,0.7-0.4,1.3-0.6,2c0.3,0.7,0.5,1.3,0.6,2c0.2,0.7,0.3,1.4,0.4,2.2c0,0,0,0,0,0.1c0.1,0.6,0.1,1.1,0.1,1.7c0,0.1,0,0.2,0,0.2   c0,0.4,0,0.8-0.1,1.1c-0.1,0.9-0.2,1.9-0.5,2.8c-0.3,1.1-0.7,2.2-1.2,3.3c-0.1,0.3-0.3,0.5-0.4,0.8c-0.1,0.2-0.2,0.4-0.3,0.6   c-0.2,0.4-0.5,0.8-0.8,1.2c-0.3,0.4-0.6,0.8-0.9,1.2c-0.1,0.2-0.2,0.3-0.3,0.4c-0.3,0.4-0.6,0.7-0.9,1.1c-0.3,0.3-0.6,0.6-0.9,1   c-1.4,1.5-3,2.9-4.8,4.3c-0.4,0.3-0.8,0.6-1.2,0.9c-0.4,0.3-0.8,0.5-1.1,0.8c-15.3,10.4-42.3,17.3-72.9,17.3   c-30.6,0-57.6-6.9-72.9-17.3c-0.4-0.3-0.8-0.5-1.1-0.8c-0.4-0.3-0.8-0.6-1.2-0.9c-1.8-1.4-3.4-2.8-4.8-4.3c-0.3-0.3-0.6-0.7-0.9-1   c-0.3-0.4-0.6-0.7-0.9-1.1c-0.1-0.1-0.2-0.3-0.3-0.4c-0.3-0.4-0.6-0.8-0.9-1.2c-0.3-0.4-0.5-0.8-0.8-1.2c-0.1-0.2-0.2-0.4-0.3-0.6   c-0.2-0.3-0.3-0.5-0.4-0.8c-0.5-1.1-0.9-2.2-1.2-3.3c-0.3-0.9-0.4-1.9-0.5-2.8c0-0.4-0.1-0.8-0.1-1.1c0-0.1,0-0.2,0-0.2   c0-0.6,0-1.1,0.1-1.7c0,0,0-0.1,0-0.1c0.1-0.7,0.2-1.4,0.4-2.1c0.2-0.7,0.4-1.3,0.6-2c-0.3-0.7-0.5-1.3-0.6-2   c-0.2-0.7-0.3-1.5-0.4-2.2c-0.4,0.7-0.7,1.4-1,2.1c-0.3,0.7-0.6,1.5-0.9,2.2c-0.6,1.9-1,3.9-1,5.9c0,0.1,0,0.2,0,0.2   c0,1.3,0.2,2.6,0.5,3.9c0.2,1,0.5,2.1,1,3.1c0.1,0.4,0.3,0.7,0.5,1.1c0.3,0.6,0.6,1.2,0.9,1.8c0,0,0,0,0,0c0.3,0.4,0.5,0.9,0.8,1.3   c0.3,0.4,0.6,0.8,0.9,1.3c0.3,0.4,0.5,0.7,0.8,1.1c0.3,0.4,0.6,0.7,0.9,1.1c0.2,0.2,0.4,0.4,0.6,0.7c0.1,0.1,0.2,0.2,0.3,0.3   c1.3,1.3,2.7,2.6,4.3,3.9c0.4,0.3,0.8,0.6,1.1,0.9c0.4,0.3,0.7,0.5,1.1,0.8c3.6,2.5,7.8,4.9,12.7,7c16.7,7.3,38.9,11.4,62.5,11.4   c23.6,0,45.8-4,62.5-11.4c4.9-2.2,9.1-4.5,12.7-7c0.4-0.3,0.7-0.5,1.1-0.8c0.4-0.3,0.8-0.6,1.1-0.9c1.6-1.3,3-2.6,4.3-3.9   c0.1-0.1,0.2-0.2,0.3-0.3c0.2-0.2,0.4-0.4,0.6-0.6c0.3-0.3,0.6-0.7,0.9-1.1c0.3-0.4,0.6-0.7,0.9-1.1c0.3-0.4,0.6-0.8,0.9-1.3   c0.3-0.4,0.6-0.9,0.8-1.3c0,0,0,0,0,0c0.3-0.6,0.7-1.2,0.9-1.8c0.2-0.4,0.3-0.7,0.5-1.1c0.4-1,0.7-2,0.9-3c0.3-1.3,0.5-2.6,0.5-3.9   c0-0.1,0-0.2,0-0.2C214.3,120.2,214,118.2,213.3,116.2z" fill="#FFFFFF"></path></g><path xmlns="http://www.w3.org/2000/svg" d="M43.3,121.6v0.8h-6.9v-12.2h2.8v0c0,0.6,0,1.1,0.1,1.7c0.1,0.8,0.2,1.5,0.4,2.2c0.2,0.7,0.4,1.3,0.6,2  c0.2,0.5,0.4,1,0.7,1.6c0.2,0.5,0.5,0.9,0.7,1.4c0.2,0.4,0.5,0.8,0.8,1.2v0C42.7,120.8,43,121.2,43.3,121.6z" fill="#FFFFFF"></path><g xmlns="http://www.w3.org/2000/svg" fill="#FFFFFF"><path d="M214.3,110.2v12.2h-6.9v-0.8c0.3-0.4,0.6-0.8,0.9-1.2v0c0.3-0.4,0.5-0.8,0.8-1.2c0.3-0.4,0.5-0.9,0.7-1.4   c0.3-0.5,0.5-1,0.7-1.6c0.3-0.7,0.5-1.3,0.6-2c0.2-0.7,0.3-1.5,0.4-2.2c0.1-0.6,0.1-1.2,0.1-1.7v0H214.3z" fill="#FFFFFF"></path></g><g xmlns="http://www.w3.org/2000/svg" fill="#FFFFFF"><path class="st0" d="M203,126.4c-0.8,0.7-1.6,1.4-2.5,2c-0.4,0.3-0.8,0.6-1.2,0.9c-0.4,0.3-0.8,0.5-1.1,0.8   c-2.3,1.6-4.9,3.1-7.7,4.5c-0.5,0.3-1,0.5-1.6,0.8c-0.5,0.3-1,0.5-1.6,0.7c-15.7,7-37.7,11.4-62,11.4S79,143,63.3,136   c-0.5-0.2-1.1-0.5-1.6-0.7c-0.5-0.3-1.1-0.5-1.6-0.8c-2.8-1.4-5.4-2.9-7.7-4.5c-0.4-0.3-0.8-0.5-1.1-0.8c-0.4-0.3-0.8-0.6-1.2-0.9   c-0.9-0.7-1.7-1.3-2.5-2c-0.3-0.3-0.7-0.6-1-0.9c-0.3-0.3-0.7-0.7-1-1c-0.9-0.9-1.7-1.9-2.5-2.9c-0.3-0.4-0.6-0.8-0.8-1.2   c-0.3,0.4-0.5,0.8-0.8,1.2c0.2,0.3,0.4,0.5,0.5,0.8c0.8,1,1.6,2,2.6,3c0.3,0.3,0.7,0.7,1,1c0.3,0.3,0.6,0.6,1,0.9   c0.7,0.7,1.5,1.3,2.3,1.9c0.4,0.3,0.8,0.6,1.2,0.9c0.4,0.3,0.7,0.5,1.1,0.8c2.2,1.5,4.7,3,7.3,4.4c0.5,0.3,1,0.5,1.6,0.8   c0.5,0.2,1,0.5,1.5,0.7c16,7.4,38.6,12,63.6,12s47.7-4.6,63.6-12c0.5-0.2,1-0.5,1.5-0.7c0.5-0.3,1-0.5,1.6-0.8   c2.7-1.4,5.1-2.8,7.3-4.4c0.4-0.3,0.8-0.5,1.1-0.8c0.4-0.3,0.8-0.6,1.1-0.9c0.8-0.6,1.6-1.3,2.3-1.9   C203.7,126.9,203.3,126.6,203,126.4z M203,126.4c-0.8,0.7-1.6,1.4-2.5,2c-0.4,0.3-0.8,0.6-1.2,0.9c-0.4,0.3-0.8,0.5-1.1,0.8   c-2.3,1.6-4.9,3.1-7.7,4.5c-0.5,0.3-1,0.5-1.6,0.8c-0.5,0.3-1,0.5-1.6,0.7c-15.7,7-37.7,11.4-62,11.4S79,143,63.3,136   c-0.5-0.2-1.1-0.5-1.6-0.7c-0.5-0.3-1.1-0.5-1.6-0.8c-2.8-1.4-5.4-2.9-7.7-4.5c-0.4-0.3-0.8-0.5-1.1-0.8c-0.4-0.3-0.8-0.6-1.2-0.9   c-0.9-0.7-1.7-1.3-2.5-2c-0.3-0.3-0.7-0.6-1-0.9c-0.3-0.3-0.7-0.7-1-1c-0.9-0.9-1.7-1.9-2.5-2.9c-0.3-0.4-0.6-0.8-0.8-1.2   c-0.3,0.4-0.5,0.8-0.8,1.2c0.2,0.3,0.4,0.5,0.5,0.8c0.8,1,1.6,2,2.6,3c0.3,0.3,0.7,0.7,1,1c0.3,0.3,0.6,0.6,1,0.9   c0.7,0.7,1.5,1.3,2.3,1.9c0.4,0.3,0.8,0.6,1.2,0.9c0.4,0.3,0.7,0.5,1.1,0.8c2.2,1.5,4.7,3,7.3,4.4c0.5,0.3,1,0.5,1.6,0.8   c0.5,0.2,1,0.5,1.5,0.7c16,7.4,38.6,12,63.6,12s47.7-4.6,63.6-12c0.5-0.2,1-0.5,1.5-0.7c0.5-0.3,1-0.5,1.6-0.8   c2.7-1.4,5.1-2.8,7.3-4.4c0.4-0.3,0.8-0.5,1.1-0.8c0.4-0.3,0.8-0.6,1.1-0.9c0.8-0.6,1.6-1.3,2.3-1.9   C203.7,126.9,203.3,126.6,203,126.4z M203,126.4c-0.8,0.7-1.6,1.4-2.5,2c-0.4,0.3-0.8,0.6-1.2,0.9c-0.4,0.3-0.8,0.5-1.1,0.8   c-2.3,1.6-4.9,3.1-7.7,4.5c-0.5,0.3-1,0.5-1.6,0.8c-0.5,0.3-1,0.5-1.6,0.7c-15.7,7-37.7,11.4-62,11.4S79,143,63.3,136   c-0.5-0.2-1.1-0.5-1.6-0.7c-0.5-0.3-1.1-0.5-1.6-0.8c-2.8-1.4-5.4-2.9-7.7-4.5c-0.4-0.3-0.8-0.5-1.1-0.8c-0.4-0.3-0.8-0.6-1.2-0.9   c-0.9-0.7-1.7-1.3-2.5-2c-0.3-0.3-0.7-0.6-1-0.9c-0.3-0.3-0.7-0.7-1-1c-0.9-0.9-1.7-1.9-2.5-2.9c-0.3-0.4-0.6-0.8-0.8-1.2   c-0.3,0.4-0.5,0.8-0.8,1.2c0.2,0.3,0.4,0.5,0.5,0.8c0.8,1,1.6,2,2.6,3c0.3,0.3,0.7,0.7,1,1c0.3,0.3,0.6,0.6,1,0.9   c0.7,0.7,1.5,1.3,2.3,1.9c0.4,0.3,0.8,0.6,1.2,0.9c0.4,0.3,0.7,0.5,1.1,0.8c2.2,1.5,4.7,3,7.3,4.4c0.5,0.3,1,0.5,1.6,0.8   c0.5,0.2,1,0.5,1.5,0.7c16,7.4,38.6,12,63.6,12s47.7-4.6,63.6-12c0.5-0.2,1-0.5,1.5-0.7c0.5-0.3,1-0.5,1.6-0.8   c2.7-1.4,5.1-2.8,7.3-4.4c0.4-0.3,0.8-0.5,1.1-0.8c0.4-0.3,0.8-0.6,1.1-0.9c0.8-0.6,1.6-1.3,2.3-1.9   C203.7,126.9,203.3,126.6,203,126.4z M203,126.4c-0.8,0.7-1.6,1.4-2.5,2c-0.4,0.3-0.8,0.6-1.2,0.9c-0.4,0.3-0.8,0.5-1.1,0.8   c-2.3,1.6-4.9,3.1-7.7,4.5c-0.5,0.3-1,0.5-1.6,0.8c-0.5,0.3-1,0.5-1.6,0.7c-15.7,7-37.7,11.4-62,11.4S79,143,63.3,136   c-0.5-0.2-1.1-0.5-1.6-0.7c-0.5-0.3-1.1-0.5-1.6-0.8c-2.8-1.4-5.4-2.9-7.7-4.5c-0.4-0.3-0.8-0.5-1.1-0.8c-0.4-0.3-0.8-0.6-1.2-0.9   c-0.9-0.7-1.7-1.3-2.5-2c-0.3-0.3-0.7-0.6-1-0.9c-0.3-0.3-0.7-0.7-1-1c-0.9-0.9-1.7-1.9-2.5-2.9c-0.3-0.4-0.6-0.8-0.8-1.2   c-0.3,0.4-0.5,0.8-0.8,1.2c0.2,0.3,0.4,0.5,0.5,0.8c0.8,1,1.6,2,2.6,3c0.3,0.3,0.7,0.7,1,1c0.3,0.3,0.6,0.6,1,0.9   c0.7,0.7,1.5,1.3,2.3,1.9c0.4,0.3,0.8,0.6,1.2,0.9c0.4,0.3,0.7,0.5,1.1,0.8c2.2,1.5,4.7,3,7.3,4.4c0.5,0.3,1,0.5,1.6,0.8   c0.5,0.2,1,0.5,1.5,0.7c16,7.4,38.6,12,63.6,12s47.7-4.6,63.6-12c0.5-0.2,1-0.5,1.5-0.7c0.5-0.3,1-0.5,1.6-0.8   c2.7-1.4,5.1-2.8,7.3-4.4c0.4-0.3,0.8-0.5,1.1-0.8c0.4-0.3,0.8-0.6,1.1-0.9c0.8-0.6,1.6-1.3,2.3-1.9   C203.7,126.9,203.3,126.6,203,126.4z M203,126.4c-0.8,0.7-1.6,1.4-2.5,2c-0.4,0.3-0.8,0.6-1.2,0.9c-0.4,0.3-0.8,0.5-1.1,0.8   c-2.3,1.6-4.9,3.1-7.7,4.5c-0.5,0.3-1,0.5-1.6,0.8c-0.5,0.3-1,0.5-1.6,0.7c-15.7,7-37.7,11.4-62,11.4S79,143,63.3,136   c-0.5-0.2-1.1-0.5-1.6-0.7c-0.5-0.3-1.1-0.5-1.6-0.8c-2.8-1.4-5.4-2.9-7.7-4.5c-0.4-0.3-0.8-0.5-1.1-0.8c-0.4-0.3-0.8-0.6-1.2-0.9   c-0.9-0.7-1.7-1.3-2.5-2c-0.3-0.3-0.7-0.6-1-0.9c-0.3-0.3-0.7-0.7-1-1c-0.9-0.9-1.7-1.9-2.5-2.9c-0.3-0.4-0.6-0.8-0.8-1.2   c-0.3,0.4-0.5,0.8-0.8,1.2c0.2,0.3,0.4,0.5,0.5,0.8c0.8,1,1.6,2,2.6,3c0.3,0.3,0.7,0.7,1,1c0.3,0.3,0.6,0.6,1,0.9   c0.7,0.7,1.5,1.3,2.3,1.9c0.4,0.3,0.8,0.6,1.2,0.9c0.4,0.3,0.7,0.5,1.1,0.8c2.2,1.5,4.7,3,7.3,4.4c0.5,0.3,1,0.5,1.6,0.8   c0.5,0.2,1,0.5,1.5,0.7c16,7.4,38.6,12,63.6,12s47.7-4.6,63.6-12c0.5-0.2,1-0.5,1.5-0.7c0.5-0.3,1-0.5,1.6-0.8   c2.7-1.4,5.1-2.8,7.3-4.4c0.4-0.3,0.8-0.5,1.1-0.8c0.4-0.3,0.8-0.6,1.1-0.9c0.8-0.6,1.6-1.3,2.3-1.9   C203.7,126.9,203.3,126.6,203,126.4z M203,126.4c-0.8,0.7-1.6,1.4-2.5,2c-0.4,0.3-0.8,0.6-1.2,0.9c-0.4,0.3-0.8,0.5-1.1,0.8   c-2.3,1.6-4.9,3.1-7.7,4.5c-0.5,0.3-1,0.5-1.6,0.8c-0.5,0.3-1,0.5-1.6,0.7c-15.7,7-37.7,11.4-62,11.4S79,143,63.3,136   c-0.5-0.2-1.1-0.5-1.6-0.7c-0.5-0.3-1.1-0.5-1.6-0.8c-2.8-1.4-5.4-2.9-7.7-4.5c-0.4-0.3-0.8-0.5-1.1-0.8c-0.4-0.3-0.8-0.6-1.2-0.9   c-0.9-0.7-1.7-1.3-2.5-2c-0.3-0.3-0.7-0.6-1-0.9c-0.3-0.3-0.7-0.7-1-1c-0.9-0.9-1.7-1.9-2.5-2.9c-0.3-0.4-0.6-0.8-0.8-1.2   c-0.3,0.4-0.5,0.8-0.8,1.2c0.2,0.3,0.4,0.5,0.5,0.8c0.8,1,1.6,2,2.6,3c0.3,0.3,0.7,0.7,1,1c0.3,0.3,0.6,0.6,1,0.9   c0.7,0.7,1.5,1.3,2.3,1.9c0.4,0.3,0.8,0.6,1.2,0.9c0.4,0.3,0.7,0.5,1.1,0.8c2.2,1.5,4.7,3,7.3,4.4c0.5,0.3,1,0.5,1.6,0.8   c0.5,0.2,1,0.5,1.5,0.7c16,7.4,38.6,12,63.6,12s47.7-4.6,63.6-12c0.5-0.2,1-0.5,1.5-0.7c0.5-0.3,1-0.5,1.6-0.8   c2.7-1.4,5.1-2.8,7.3-4.4c0.4-0.3,0.8-0.5,1.1-0.8c0.4-0.3,0.8-0.6,1.1-0.9c0.8-0.6,1.6-1.3,2.3-1.9   C203.7,126.9,203.3,126.6,203,126.4z M125.3,71.8C77,71.8,37.8,89,37.8,110.2v0c0,1.3,0.1,2.5,0.4,3.8c0.2,0.7,0.4,1.5,0.6,2.2   c0.2,0.7,0.5,1.3,0.8,2c0.1,0.3,0.3,0.6,0.4,0.8c0.2,0.5,0.5,0.9,0.8,1.4c0.3,0.4,0.5,0.8,0.8,1.2c0.2,0.3,0.4,0.5,0.5,0.8   c0.8,1,1.6,2,2.6,3c0.3,0.3,0.7,0.7,1,1c0.3,0.3,0.6,0.6,1,0.9c0.7,0.7,1.5,1.3,2.3,1.9c0.4,0.3,0.8,0.6,1.2,0.9   c0.4,0.3,0.7,0.5,1.1,0.8c2.2,1.5,4.7,3,7.3,4.4c0.5,0.3,1,0.5,1.6,0.8c0.5,0.2,1,0.5,1.5,0.7c16,7.4,38.6,12,63.6,12   s47.7-4.6,63.6-12c0.5-0.2,1-0.5,1.5-0.7c0.5-0.3,1-0.5,1.6-0.8c2.7-1.4,5.1-2.8,7.3-4.4c0.4-0.3,0.8-0.5,1.1-0.8   c0.4-0.3,0.8-0.6,1.1-0.9c0.8-0.6,1.6-1.3,2.3-1.9c0.3-0.3,0.6-0.6,1-0.9c0.3-0.3,0.7-0.7,1-1c0.9-1,1.8-2,2.6-3   c0.2-0.3,0.4-0.5,0.6-0.8c0.3-0.4,0.6-0.8,0.8-1.2c0.3-0.4,0.5-0.9,0.8-1.4c0.2-0.3,0.3-0.6,0.4-0.8c0.3-0.7,0.6-1.3,0.8-2   c0.3-0.7,0.5-1.4,0.6-2.2c0.3-1.3,0.4-2.5,0.4-3.8v0C212.9,89,173.7,71.8,125.3,71.8z M211.1,114.2c-0.2,0.7-0.4,1.3-0.6,2   c-0.2,0.5-0.4,1.1-0.7,1.6c-0.2,0.5-0.5,0.9-0.7,1.4c-0.2,0.4-0.5,0.8-0.8,1.2v0c-0.3,0.4-0.6,0.8-0.9,1.2c-0.7,1-1.5,1.9-2.4,2.8   c-0.3,0.3-0.6,0.7-1,1c-0.3,0.3-0.6,0.6-1,0.9c-0.8,0.7-1.6,1.4-2.5,2c-0.4,0.3-0.8,0.6-1.2,0.9c-0.4,0.3-0.8,0.5-1.1,0.8   c-2.3,1.6-4.9,3.1-7.7,4.5c-0.5,0.3-1,0.5-1.6,0.8c-0.5,0.3-1,0.5-1.6,0.7c-15.7,7-37.7,11.4-62,11.4S79,143,63.3,136   c-0.5-0.2-1.1-0.5-1.6-0.7c-0.5-0.3-1.1-0.5-1.6-0.8c-2.8-1.4-5.4-2.9-7.7-4.5c-0.4-0.3-0.8-0.5-1.1-0.8c-0.4-0.3-0.8-0.6-1.2-0.9   c-0.9-0.7-1.7-1.3-2.5-2c-0.3-0.3-0.7-0.6-1-0.9c-0.3-0.3-0.7-0.7-1-1c-0.9-0.9-1.7-1.9-2.5-2.9c-0.3-0.4-0.6-0.8-0.8-1.2v0   c-0.3-0.4-0.5-0.8-0.8-1.2c-0.3-0.4-0.5-0.9-0.7-1.4c-0.3-0.5-0.5-1-0.7-1.6c-0.3-0.7-0.5-1.3-0.6-2c-0.2-0.7-0.3-1.5-0.4-2.2   c-0.1-0.6-0.1-1.1-0.1-1.7v0c0-20.4,38.7-37.1,86.2-37.1c47.5,0,86.2,16.6,86.2,37.1v0c0,0.6,0,1.1-0.1,1.7   C211.4,112.7,211.2,113.5,211.1,114.2z M203,126.4c-0.8,0.7-1.6,1.4-2.5,2c-0.4,0.3-0.8,0.6-1.2,0.9c-0.4,0.3-0.8,0.5-1.1,0.8   c-2.3,1.6-4.9,3.1-7.7,4.5c-0.5,0.3-1,0.5-1.6,0.8c-0.5,0.3-1,0.5-1.6,0.7c-15.7,7-37.7,11.4-62,11.4S79,143,63.3,136   c-0.5-0.2-1.1-0.5-1.6-0.7c-0.5-0.3-1.1-0.5-1.6-0.8c-2.8-1.4-5.4-2.9-7.7-4.5c-0.4-0.3-0.8-0.5-1.1-0.8c-0.4-0.3-0.8-0.6-1.2-0.9   c-0.9-0.7-1.7-1.3-2.5-2c-0.3-0.3-0.7-0.6-1-0.9c-0.3-0.3-0.7-0.7-1-1c-0.9-0.9-1.7-1.9-2.5-2.9c-0.3-0.4-0.6-0.8-0.8-1.2   c-0.3,0.4-0.5,0.8-0.8,1.2c0.2,0.3,0.4,0.5,0.5,0.8c0.8,1,1.6,2,2.6,3c0.3,0.3,0.7,0.7,1,1c0.3,0.3,0.6,0.6,1,0.9   c0.7,0.7,1.5,1.3,2.3,1.9c0.4,0.3,0.8,0.6,1.2,0.9c0.4,0.3,0.7,0.5,1.1,0.8c2.2,1.5,4.7,3,7.3,4.4c0.5,0.3,1,0.5,1.6,0.8   c0.5,0.2,1,0.5,1.5,0.7c16,7.4,38.6,12,63.6,12s47.7-4.6,63.6-12c0.5-0.2,1-0.5,1.5-0.7c0.5-0.3,1-0.5,1.6-0.8   c2.7-1.4,5.1-2.8,7.3-4.4c0.4-0.3,0.8-0.5,1.1-0.8c0.4-0.3,0.8-0.6,1.1-0.9c0.8-0.6,1.6-1.3,2.3-1.9   C203.7,126.9,203.3,126.6,203,126.4z M203,126.4c-0.8,0.7-1.6,1.4-2.5,2c-0.4,0.3-0.8,0.6-1.2,0.9c-0.4,0.3-0.8,0.5-1.1,0.8   c-2.3,1.6-4.9,3.1-7.7,4.5c-0.5,0.3-1,0.5-1.6,0.8c-0.5,0.3-1,0.5-1.6,0.7c-15.7,7-37.7,11.4-62,11.4S79,143,63.3,136   c-0.5-0.2-1.1-0.5-1.6-0.7c-0.5-0.3-1.1-0.5-1.6-0.8c-2.8-1.4-5.4-2.9-7.7-4.5c-0.4-0.3-0.8-0.5-1.1-0.8c-0.4-0.3-0.8-0.6-1.2-0.9   c-0.9-0.7-1.7-1.3-2.5-2c-0.3-0.3-0.7-0.6-1-0.9c-0.3-0.3-0.7-0.7-1-1c-0.9-0.9-1.7-1.9-2.5-2.9c-0.3-0.4-0.6-0.8-0.8-1.2   c-0.3,0.4-0.5,0.8-0.8,1.2c0.2,0.3,0.4,0.5,0.5,0.8c0.8,1,1.6,2,2.6,3c0.3,0.3,0.7,0.7,1,1c0.3,0.3,0.6,0.6,1,0.9   c0.7,0.7,1.5,1.3,2.3,1.9c0.4,0.3,0.8,0.6,1.2,0.9c0.4,0.3,0.7,0.5,1.1,0.8c2.2,1.5,4.7,3,7.3,4.4c0.5,0.3,1,0.5,1.6,0.8   c0.5,0.2,1,0.5,1.5,0.7c16,7.4,38.6,12,63.6,12s47.7-4.6,63.6-12c0.5-0.2,1-0.5,1.5-0.7c0.5-0.3,1-0.5,1.6-0.8   c2.7-1.4,5.1-2.8,7.3-4.4c0.4-0.3,0.8-0.5,1.1-0.8c0.4-0.3,0.8-0.6,1.1-0.9c0.8-0.6,1.6-1.3,2.3-1.9   C203.7,126.9,203.3,126.6,203,126.4z M203,126.4c-0.8,0.7-1.6,1.4-2.5,2c-0.4,0.3-0.8,0.6-1.2,0.9c-0.4,0.3-0.8,0.5-1.1,0.8   c-2.3,1.6-4.9,3.1-7.7,4.5c-0.5,0.3-1,0.5-1.6,0.8c-0.5,0.3-1,0.5-1.6,0.7c-15.7,7-37.7,11.4-62,11.4S79,143,63.3,136   c-0.5-0.2-1.1-0.5-1.6-0.7c-0.5-0.3-1.1-0.5-1.6-0.8c-2.8-1.4-5.4-2.9-7.7-4.5c-0.4-0.3-0.8-0.5-1.1-0.8c-0.4-0.3-0.8-0.6-1.2-0.9   c-0.9-0.7-1.7-1.3-2.5-2c-0.3-0.3-0.7-0.6-1-0.9c-0.3-0.3-0.7-0.7-1-1c-0.9-0.9-1.7-1.9-2.5-2.9c-0.3-0.4-0.6-0.8-0.8-1.2   c-0.3,0.4-0.5,0.8-0.8,1.2c0.2,0.3,0.4,0.5,0.5,0.8c0.8,1,1.6,2,2.6,3c0.3,0.3,0.7,0.7,1,1c0.3,0.3,0.6,0.6,1,0.9   c0.7,0.7,1.5,1.3,2.3,1.9c0.4,0.3,0.8,0.6,1.2,0.9c0.4,0.3,0.7,0.5,1.1,0.8c2.2,1.5,4.7,3,7.3,4.4c0.5,0.3,1,0.5,1.6,0.8   c0.5,0.2,1,0.5,1.5,0.7c16,7.4,38.6,12,63.6,12s47.7-4.6,63.6-12c0.5-0.2,1-0.5,1.5-0.7c0.5-0.3,1-0.5,1.6-0.8   c2.7-1.4,5.1-2.8,7.3-4.4c0.4-0.3,0.8-0.5,1.1-0.8c0.4-0.3,0.8-0.6,1.1-0.9c0.8-0.6,1.6-1.3,2.3-1.9   C203.7,126.9,203.3,126.6,203,126.4z M203,126.4c-0.8,0.7-1.6,1.4-2.5,2c-0.4,0.3-0.8,0.6-1.2,0.9c-0.4,0.3-0.8,0.5-1.1,0.8   c-2.3,1.6-4.9,3.1-7.7,4.5c-0.5,0.3-1,0.5-1.6,0.8c-0.5,0.3-1,0.5-1.6,0.7c-15.7,7-37.7,11.4-62,11.4S79,143,63.3,136   c-0.5-0.2-1.1-0.5-1.6-0.7c-0.5-0.3-1.1-0.5-1.6-0.8c-2.8-1.4-5.4-2.9-7.7-4.5c-0.4-0.3-0.8-0.5-1.1-0.8c-0.4-0.3-0.8-0.6-1.2-0.9   c-0.9-0.7-1.7-1.3-2.5-2c-0.3-0.3-0.7-0.6-1-0.9c-0.3-0.3-0.7-0.7-1-1c-0.9-0.9-1.7-1.9-2.5-2.9c-0.3-0.4-0.6-0.8-0.8-1.2   c-0.3,0.4-0.5,0.8-0.8,1.2c0.2,0.3,0.4,0.5,0.5,0.8c0.8,1,1.6,2,2.6,3c0.3,0.3,0.7,0.7,1,1c0.3,0.3,0.6,0.6,1,0.9   c0.7,0.7,1.5,1.3,2.3,1.9c0.4,0.3,0.8,0.6,1.2,0.9c0.4,0.3,0.7,0.5,1.1,0.8c2.2,1.5,4.7,3,7.3,4.4c0.5,0.3,1,0.5,1.6,0.8   c0.5,0.2,1,0.5,1.5,0.7c16,7.4,38.6,12,63.6,12s47.7-4.6,63.6-12c0.5-0.2,1-0.5,1.5-0.7c0.5-0.3,1-0.5,1.6-0.8   c2.7-1.4,5.1-2.8,7.3-4.4c0.4-0.3,0.8-0.5,1.1-0.8c0.4-0.3,0.8-0.6,1.1-0.9c0.8-0.6,1.6-1.3,2.3-1.9   C203.7,126.9,203.3,126.6,203,126.4z M203,126.4c-0.8,0.7-1.6,1.4-2.5,2c-0.4,0.3-0.8,0.6-1.2,0.9c-0.4,0.3-0.8,0.5-1.1,0.8   c-2.3,1.6-4.9,3.1-7.7,4.5c-0.5,0.3-1,0.5-1.6,0.8c-0.5,0.3-1,0.5-1.6,0.7c-15.7,7-37.7,11.4-62,11.4S79,143,63.3,136   c-0.5-0.2-1.1-0.5-1.6-0.7c-0.5-0.3-1.1-0.5-1.6-0.8c-2.8-1.4-5.4-2.9-7.7-4.5c-0.4-0.3-0.8-0.5-1.1-0.8c-0.4-0.3-0.8-0.6-1.2-0.9   c-0.9-0.7-1.7-1.3-2.5-2c-0.3-0.3-0.7-0.6-1-0.9c-0.3-0.3-0.7-0.7-1-1c-0.9-0.9-1.7-1.9-2.5-2.9c-0.3-0.4-0.6-0.8-0.8-1.2   c-0.3,0.4-0.5,0.8-0.8,1.2c0.2,0.3,0.4,0.5,0.5,0.8c0.8,1,1.6,2,2.6,3c0.3,0.3,0.7,0.7,1,1c0.3,0.3,0.6,0.6,1,0.9   c0.7,0.7,1.5,1.3,2.3,1.9c0.4,0.3,0.8,0.6,1.2,0.9c0.4,0.3,0.7,0.5,1.1,0.8c2.2,1.5,4.7,3,7.3,4.4c0.5,0.3,1,0.5,1.6,0.8   c0.5,0.2,1,0.5,1.5,0.7c16,7.4,38.6,12,63.6,12s47.7-4.6,63.6-12c0.5-0.2,1-0.5,1.5-0.7c0.5-0.3,1-0.5,1.6-0.8   c2.7-1.4,5.1-2.8,7.3-4.4c0.4-0.3,0.8-0.5,1.1-0.8c0.4-0.3,0.8-0.6,1.1-0.9c0.8-0.6,1.6-1.3,2.3-1.9   C203.7,126.9,203.3,126.6,203,126.4z M203,126.4c-0.8,0.7-1.6,1.4-2.5,2c-0.4,0.3-0.8,0.6-1.2,0.9c-0.4,0.3-0.8,0.5-1.1,0.8   c-2.3,1.6-4.9,3.1-7.7,4.5c-0.5,0.3-1,0.5-1.6,0.8c-0.5,0.3-1,0.5-1.6,0.7c-15.7,7-37.7,11.4-62,11.4S79,143,63.3,136   c-0.5-0.2-1.1-0.5-1.6-0.7c-0.5-0.3-1.1-0.5-1.6-0.8c-2.8-1.4-5.4-2.9-7.7-4.5c-0.4-0.3-0.8-0.5-1.1-0.8c-0.4-0.3-0.8-0.6-1.2-0.9   c-0.9-0.7-1.7-1.3-2.5-2c-0.3-0.3-0.7-0.6-1-0.9c-0.3-0.3-0.7-0.7-1-1c-0.9-0.9-1.7-1.9-2.5-2.9c-0.3-0.4-0.6-0.8-0.8-1.2   c-0.3,0.4-0.5,0.8-0.8,1.2c0.2,0.3,0.4,0.5,0.5,0.8c0.8,1,1.6,2,2.6,3c0.3,0.3,0.7,0.7,1,1c0.3,0.3,0.6,0.6,1,0.9   c0.7,0.7,1.5,1.3,2.3,1.9c0.4,0.3,0.8,0.6,1.2,0.9c0.4,0.3,0.7,0.5,1.1,0.8c2.2,1.5,4.7,3,7.3,4.4c0.5,0.3,1,0.5,1.6,0.8   c0.5,0.2,1,0.5,1.5,0.7c16,7.4,38.6,12,63.6,12s47.7-4.6,63.6-12c0.5-0.2,1-0.5,1.5-0.7c0.5-0.3,1-0.5,1.6-0.8   c2.7-1.4,5.1-2.8,7.3-4.4c0.4-0.3,0.8-0.5,1.1-0.8c0.4-0.3,0.8-0.6,1.1-0.9c0.8-0.6,1.6-1.3,2.3-1.9   C203.7,126.9,203.3,126.6,203,126.4z" style="" fill="#FFFFFF"></path><path d="M203,126.4c-0.8,0.7-1.6,1.4-2.5,2c-0.4,0.3-0.8,0.6-1.2,0.9c-0.4,0.3-0.8,0.5-1.1,0.8   c-2.3,1.6-4.9,3.1-7.7,4.5c-0.5,0.3-1,0.5-1.6,0.8c-0.5,0.3-1,0.5-1.6,0.7c-15.7,7-37.7,11.4-62,11.4S79,143,63.3,136   c-0.5-0.2-1.1-0.5-1.6-0.7c-0.5-0.3-1.1-0.5-1.6-0.8c-2.8-1.4-5.4-2.9-7.7-4.5c-0.4-0.3-0.8-0.5-1.1-0.8c-0.4-0.3-0.8-0.6-1.2-0.9   c-0.9-0.7-1.7-1.3-2.5-2c-0.3-0.3-0.7-0.6-1-0.9c-0.3-0.3-0.7-0.7-1-1c-0.9-0.9-1.7-1.9-2.5-2.9c-0.3-0.4-0.6-0.8-0.8-1.2   c-0.3,0.4-0.5,0.8-0.8,1.2c0.2,0.3,0.4,0.5,0.5,0.8c0.8,1,1.6,2,2.6,3c0.3,0.3,0.7,0.7,1,1c0.3,0.3,0.6,0.6,1,0.9   c0.7,0.7,1.5,1.3,2.3,1.9c0.4,0.3,0.8,0.6,1.2,0.9c0.4,0.3,0.7,0.5,1.1,0.8c-0.4,0.3-0.8,0.6-1.2,0.9c2.1,1.5,4.5,2.9,7,4.3   c0.5,0.3,1,0.5,1.5,0.8c0.5,0.3,1,0.5,1.5,0.7c0.9,0.4,1.8,0.9,2.7,1.3c16.7,7.3,38.9,11.4,62.5,11.4c23.6,0,45.8-4,62.5-11.4   c0.9-0.4,1.9-0.8,2.7-1.3c-0.5-0.3-1.1-0.5-1.6-0.8c0.5-0.2,1-0.5,1.5-0.7c0.5-0.3,1-0.5,1.6-0.8c2.7-1.4,5.1-2.8,7.3-4.4   c0.4-0.3,0.8-0.5,1.1-0.8c0.4-0.3,0.8-0.6,1.1-0.9c0.8-0.6,1.6-1.3,2.3-1.9C203.7,126.9,203.3,126.6,203,126.4z M203,126.4   c-0.8,0.7-1.6,1.4-2.5,2c-0.4,0.3-0.8,0.6-1.2,0.9c-0.4,0.3-0.8,0.5-1.1,0.8c-2.3,1.6-4.9,3.1-7.7,4.5c-0.5,0.3-1,0.5-1.6,0.8   c-0.5,0.3-1,0.5-1.6,0.7c-15.7,7-37.7,11.4-62,11.4S79,143,63.3,136c-0.5-0.2-1.1-0.5-1.6-0.7c-0.5-0.3-1.1-0.5-1.6-0.8   c-2.8-1.4-5.4-2.9-7.7-4.5c-0.4-0.3-0.8-0.5-1.1-0.8c-0.4-0.3-0.8-0.6-1.2-0.9c-0.9-0.7-1.7-1.3-2.5-2c-0.3-0.3-0.7-0.6-1-0.9   c-0.3-0.3-0.7-0.7-1-1c-0.9-0.9-1.7-1.9-2.5-2.9c-0.3-0.4-0.6-0.8-0.8-1.2c-0.3,0.4-0.5,0.8-0.8,1.2c0.2,0.3,0.4,0.5,0.5,0.8   c0.8,1,1.6,2,2.6,3c0.3,0.3,0.7,0.7,1,1c0.3,0.3,0.6,0.6,1,0.9c0.7,0.7,1.5,1.3,2.3,1.9c0.4,0.3,0.8,0.6,1.2,0.9   c0.4,0.3,0.7,0.5,1.1,0.8c2.2,1.5,4.7,3,7.3,4.4c0.5,0.3,1,0.5,1.6,0.8c0.5,0.2,1,0.5,1.5,0.7c16,7.4,38.6,12,63.6,12   s47.7-4.6,63.6-12c0.5-0.2,1-0.5,1.5-0.7c0.5-0.3,1-0.5,1.6-0.8c2.7-1.4,5.1-2.8,7.3-4.4c0.4-0.3,0.8-0.5,1.1-0.8   c0.4-0.3,0.8-0.6,1.1-0.9c0.8-0.6,1.6-1.3,2.3-1.9C203.7,126.9,203.3,126.6,203,126.4z M203,126.4c-0.8,0.7-1.6,1.4-2.5,2   c-0.4,0.3-0.8,0.6-1.2,0.9c-0.4,0.3-0.8,0.5-1.1,0.8c-2.3,1.6-4.9,3.1-7.7,4.5c-0.5,0.3-1,0.5-1.6,0.8c-0.5,0.3-1,0.5-1.6,0.7   c-15.7,7-37.7,11.4-62,11.4S79,143,63.3,136c-0.5-0.2-1.1-0.5-1.6-0.7c-0.5-0.3-1.1-0.5-1.6-0.8c-2.8-1.4-5.4-2.9-7.7-4.5   c-0.4-0.3-0.8-0.5-1.1-0.8c-0.4-0.3-0.8-0.6-1.2-0.9c-0.9-0.7-1.7-1.3-2.5-2c-0.3-0.3-0.7-0.6-1-0.9c-0.3-0.3-0.7-0.7-1-1   c-0.9-0.9-1.7-1.9-2.5-2.9c-0.3-0.4-0.6-0.8-0.8-1.2c-0.3,0.4-0.5,0.8-0.8,1.2c0.2,0.3,0.4,0.5,0.5,0.8c0.8,1,1.6,2,2.6,3   c0.3,0.3,0.7,0.7,1,1c0.3,0.3,0.6,0.6,1,0.9c0.7,0.7,1.5,1.3,2.3,1.9c0.4,0.3,0.8,0.6,1.2,0.9c0.4,0.3,0.7,0.5,1.1,0.8   c2.2,1.5,4.7,3,7.3,4.4c0.5,0.3,1,0.5,1.6,0.8c0.5,0.2,1,0.5,1.5,0.7c16,7.4,38.6,12,63.6,12s47.7-4.6,63.6-12   c0.5-0.2,1-0.5,1.5-0.7c0.5-0.3,1-0.5,1.6-0.8c2.7-1.4,5.1-2.8,7.3-4.4c0.4-0.3,0.8-0.5,1.1-0.8c0.4-0.3,0.8-0.6,1.1-0.9   c0.8-0.6,1.6-1.3,2.3-1.9C203.7,126.9,203.3,126.6,203,126.4z M203,126.4c-0.8,0.7-1.6,1.4-2.5,2c-0.4,0.3-0.8,0.6-1.2,0.9   c-0.4,0.3-0.8,0.5-1.1,0.8c-2.3,1.6-4.9,3.1-7.7,4.5c-0.5,0.3-1,0.5-1.6,0.8c-0.5,0.3-1,0.5-1.6,0.7c-15.7,7-37.7,11.4-62,11.4   S79,143,63.3,136c-0.5-0.2-1.1-0.5-1.6-0.7c-0.5-0.3-1.1-0.5-1.6-0.8c-2.8-1.4-5.4-2.9-7.7-4.5c-0.4-0.3-0.8-0.5-1.1-0.8   c-0.4-0.3-0.8-0.6-1.2-0.9c-0.9-0.7-1.7-1.3-2.5-2c-0.3-0.3-0.7-0.6-1-0.9c-0.3-0.3-0.7-0.7-1-1c-0.9-0.9-1.7-1.9-2.5-2.9   c-0.3-0.4-0.6-0.8-0.8-1.2c-0.3,0.4-0.5,0.8-0.8,1.2c0.2,0.3,0.4,0.5,0.5,0.8c0.8,1,1.6,2,2.6,3c0.3,0.3,0.7,0.7,1,1   c0.3,0.3,0.6,0.6,1,0.9c0.7,0.7,1.5,1.3,2.3,1.9c0.4,0.3,0.8,0.6,1.2,0.9c0.4,0.3,0.7,0.5,1.1,0.8c2.2,1.5,4.7,3,7.3,4.4   c0.5,0.3,1,0.5,1.6,0.8c0.5,0.2,1,0.5,1.5,0.7c16,7.4,38.6,12,63.6,12s47.7-4.6,63.6-12c0.5-0.2,1-0.5,1.5-0.7   c0.5-0.3,1-0.5,1.6-0.8c2.7-1.4,5.1-2.8,7.3-4.4c0.4-0.3,0.8-0.5,1.1-0.8c0.4-0.3,0.8-0.6,1.1-0.9c0.8-0.6,1.6-1.3,2.3-1.9   C203.7,126.9,203.3,126.6,203,126.4z M203,126.4c-0.8,0.7-1.6,1.4-2.5,2c-0.4,0.3-0.8,0.6-1.2,0.9c-0.4,0.3-0.8,0.5-1.1,0.8   c-2.3,1.6-4.9,3.1-7.7,4.5c-0.5,0.3-1,0.5-1.6,0.8c-0.5,0.3-1,0.5-1.6,0.7c-15.7,7-37.7,11.4-62,11.4S79,143,63.3,136   c-0.5-0.2-1.1-0.5-1.6-0.7c-0.5-0.3-1.1-0.5-1.6-0.8c-2.8-1.4-5.4-2.9-7.7-4.5c-0.4-0.3-0.8-0.5-1.1-0.8c-0.4-0.3-0.8-0.6-1.2-0.9   c-0.9-0.7-1.7-1.3-2.5-2c-0.3-0.3-0.7-0.6-1-0.9c-0.3-0.3-0.7-0.7-1-1c-0.9-0.9-1.7-1.9-2.5-2.9c-0.3-0.4-0.6-0.8-0.8-1.2   c-0.3,0.4-0.5,0.8-0.8,1.2c0.2,0.3,0.4,0.5,0.5,0.8c0.8,1,1.6,2,2.6,3c0.3,0.3,0.7,0.7,1,1c0.3,0.3,0.6,0.6,1,0.9   c0.7,0.7,1.5,1.3,2.3,1.9c0.4,0.3,0.8,0.6,1.2,0.9c0.4,0.3,0.7,0.5,1.1,0.8c2.2,1.5,4.7,3,7.3,4.4c0.5,0.3,1,0.5,1.6,0.8   c0.5,0.2,1,0.5,1.5,0.7c16,7.4,38.6,12,63.6,12s47.7-4.6,63.6-12c0.5-0.2,1-0.5,1.5-0.7c0.5-0.3,1-0.5,1.6-0.8   c2.7-1.4,5.1-2.8,7.3-4.4c0.4-0.3,0.8-0.5,1.1-0.8c0.4-0.3,0.8-0.6,1.1-0.9c0.8-0.6,1.6-1.3,2.3-1.9   C203.7,126.9,203.3,126.6,203,126.4z M203,126.4c-0.8,0.7-1.6,1.4-2.5,2c-0.4,0.3-0.8,0.6-1.2,0.9c-0.4,0.3-0.8,0.5-1.1,0.8   c-2.3,1.6-4.9,3.1-7.7,4.5c-0.5,0.3-1,0.5-1.6,0.8c-0.5,0.3-1,0.5-1.6,0.7c-15.7,7-37.7,11.4-62,11.4S79,143,63.3,136   c-0.5-0.2-1.1-0.5-1.6-0.7c-0.5-0.3-1.1-0.5-1.6-0.8c-2.8-1.4-5.4-2.9-7.7-4.5c-0.4-0.3-0.8-0.5-1.1-0.8c-0.4-0.3-0.8-0.6-1.2-0.9   c-0.9-0.7-1.7-1.3-2.5-2c-0.3-0.3-0.7-0.6-1-0.9c-0.3-0.3-0.7-0.7-1-1c-0.9-0.9-1.7-1.9-2.5-2.9c-0.3-0.4-0.6-0.8-0.8-1.2   c-0.3,0.4-0.5,0.8-0.8,1.2c0.2,0.3,0.4,0.5,0.5,0.8c0.8,1,1.6,2,2.6,3c0.3,0.3,0.7,0.7,1,1c0.3,0.3,0.6,0.6,1,0.9   c0.7,0.7,1.5,1.3,2.3,1.9c0.4,0.3,0.8,0.6,1.2,0.9c0.4,0.3,0.7,0.5,1.1,0.8c2.2,1.5,4.7,3,7.3,4.4c0.5,0.3,1,0.5,1.6,0.8   c0.5,0.2,1,0.5,1.5,0.7c16,7.4,38.6,12,63.6,12s47.7-4.6,63.6-12c0.5-0.2,1-0.5,1.5-0.7c0.5-0.3,1-0.5,1.6-0.8   c2.7-1.4,5.1-2.8,7.3-4.4c0.4-0.3,0.8-0.5,1.1-0.8c0.4-0.3,0.8-0.6,1.1-0.9c0.8-0.6,1.6-1.3,2.3-1.9   C203.7,126.9,203.3,126.6,203,126.4z M187.8,81.8c-16.7-7.3-38.9-11.4-62.5-11.4c-23.6,0-45.8,4.1-62.5,11.4   c-17,7.5-26.5,17.6-26.5,28.4v0c0,2,0.3,4,1,6c0.2,0.7,0.5,1.4,0.9,2.2c0.3,0.7,0.6,1.3,1,2c0,0,0,0,0,0.1c0.3,0.4,0.5,0.9,0.8,1.3   c0.1,0.2,0.3,0.4,0.4,0.6c0.1,0.2,0.3,0.4,0.4,0.6c0.8,1.1,1.8,2.2,2.9,3.3c0.3,0.3,0.7,0.7,1,1c0.3,0.3,0.6,0.6,1,0.9   c0.7,0.6,1.4,1.2,2.2,1.8c0.4,0.3,0.8,0.6,1.2,0.9c0.4,0.3,0.7,0.5,1.1,0.8c2.1,1.5,4.5,2.9,7,4.3c0.5,0.3,1,0.5,1.5,0.8   c0.5,0.3,1,0.5,1.5,0.7c0.9,0.4,1.8,0.9,2.7,1.3c16.7,7.3,38.9,11.4,62.5,11.4c23.6,0,45.8-4,62.5-11.4c0.9-0.4,1.9-0.8,2.7-1.3   c0.5-0.2,1-0.5,1.5-0.7c0.5-0.3,1-0.5,1.5-0.8c2.6-1.4,4.9-2.8,7-4.3c0.4-0.3,0.7-0.5,1.1-0.8c0.4-0.3,0.8-0.6,1.1-0.9   c0.8-0.6,1.5-1.2,2.2-1.8c0.3-0.3,0.6-0.6,0.9-0.9c0.3-0.3,0.7-0.7,1-1c1.1-1.1,2-2.2,2.9-3.3c0.1-0.2,0.3-0.4,0.4-0.6   c0.1-0.2,0.3-0.4,0.4-0.6c0.3-0.4,0.6-0.9,0.8-1.3c0,0,0,0,0,0c0.4-0.7,0.7-1.3,1-2c0.3-0.7,0.6-1.4,0.8-2.2c0.6-2,1-3.9,1-6v0   C214.3,99.4,204.9,89.3,187.8,81.8z M211.5,110.3c0,0.6,0,1.1-0.1,1.7c-0.1,0.7-0.2,1.5-0.4,2.2c-0.2,0.7-0.4,1.3-0.6,2   c-0.2,0.5-0.4,1.1-0.7,1.6c-0.2,0.5-0.5,0.9-0.7,1.4c-0.2,0.4-0.5,0.8-0.8,1.2v0c-0.3,0.4-0.6,0.8-0.9,1.2c-0.7,1-1.5,1.9-2.4,2.8   c-0.3,0.3-0.6,0.7-1,1c-0.3,0.3-0.6,0.6-1,0.9c-0.8,0.7-1.6,1.4-2.5,2c-0.4,0.3-0.8,0.6-1.2,0.9c-0.4,0.3-0.8,0.5-1.1,0.8   c-2.3,1.6-4.9,3.1-7.7,4.5c-0.5,0.3-1,0.5-1.6,0.8c-0.5,0.3-1,0.5-1.6,0.7c-15.7,7-37.7,11.4-62,11.4S79,143,63.3,136   c-0.5-0.2-1.1-0.5-1.6-0.7c-0.5-0.3-1.1-0.5-1.6-0.8c-2.8-1.4-5.4-2.9-7.7-4.5c-0.4-0.3-0.8-0.5-1.1-0.8c-0.4-0.3-0.8-0.6-1.2-0.9   c-0.9-0.7-1.7-1.3-2.5-2c-0.3-0.3-0.7-0.6-1-0.9c-0.3-0.3-0.7-0.7-1-1c-0.9-0.9-1.7-1.9-2.5-2.9c-0.3-0.4-0.6-0.8-0.8-1.2v0   c-0.3-0.4-0.5-0.8-0.8-1.2c-0.3-0.4-0.5-0.9-0.7-1.4c-0.3-0.5-0.5-1-0.7-1.6c-0.3-0.7-0.5-1.3-0.6-2c-0.2-0.7-0.3-1.5-0.4-2.2   c-0.1-0.6-0.1-1.1-0.1-1.7v0c0-20.4,38.7-37.1,86.2-37.1C172.9,73.2,211.5,89.8,211.5,110.3L211.5,110.3z M203,126.4   c-0.8,0.7-1.6,1.4-2.5,2c-0.4,0.3-0.8,0.6-1.2,0.9c-0.4,0.3-0.8,0.5-1.1,0.8c-2.3,1.6-4.9,3.1-7.7,4.5c-0.5,0.3-1,0.5-1.6,0.8   c-0.5,0.3-1,0.5-1.6,0.7c-15.7,7-37.7,11.4-62,11.4S79,143,63.3,136c-0.5-0.2-1.1-0.5-1.6-0.7c-0.5-0.3-1.1-0.5-1.6-0.8   c-2.8-1.4-5.4-2.9-7.7-4.5c-0.4-0.3-0.8-0.5-1.1-0.8c-0.4-0.3-0.8-0.6-1.2-0.9c-0.9-0.7-1.7-1.3-2.5-2c-0.3-0.3-0.7-0.6-1-0.9   c-0.3-0.3-0.7-0.7-1-1c-0.9-0.9-1.7-1.9-2.5-2.9c-0.3-0.4-0.6-0.8-0.8-1.2c-0.3,0.4-0.5,0.8-0.8,1.2c0.2,0.3,0.4,0.5,0.5,0.8   c0.8,1,1.6,2,2.6,3c0.3,0.3,0.7,0.7,1,1c0.3,0.3,0.6,0.6,1,0.9c0.7,0.7,1.5,1.3,2.3,1.9c0.4,0.3,0.8,0.6,1.2,0.9   c0.4,0.3,0.7,0.5,1.1,0.8c2.2,1.5,4.7,3,7.3,4.4c0.5,0.3,1,0.5,1.6,0.8c0.5,0.2,1,0.5,1.5,0.7c16,7.4,38.6,12,63.6,12   s47.7-4.6,63.6-12c0.5-0.2,1-0.5,1.5-0.7c0.5-0.3,1-0.5,1.6-0.8c2.7-1.4,5.1-2.8,7.3-4.4c0.4-0.3,0.8-0.5,1.1-0.8   c0.4-0.3,0.8-0.6,1.1-0.9c0.8-0.6,1.6-1.3,2.3-1.9C203.7,126.9,203.3,126.6,203,126.4z M203,126.4c-0.8,0.7-1.6,1.4-2.5,2   c-0.4,0.3-0.8,0.6-1.2,0.9c-0.4,0.3-0.8,0.5-1.1,0.8c-2.3,1.6-4.9,3.1-7.7,4.5c-0.5,0.3-1,0.5-1.6,0.8c-0.5,0.3-1,0.5-1.6,0.7   c-15.7,7-37.7,11.4-62,11.4S79,143,63.3,136c-0.5-0.2-1.1-0.5-1.6-0.7c-0.5-0.3-1.1-0.5-1.6-0.8c-2.8-1.4-5.4-2.9-7.7-4.5   c-0.4-0.3-0.8-0.5-1.1-0.8c-0.4-0.3-0.8-0.6-1.2-0.9c-0.9-0.7-1.7-1.3-2.5-2c-0.3-0.3-0.7-0.6-1-0.9c-0.3-0.3-0.7-0.7-1-1   c-0.9-0.9-1.7-1.9-2.5-2.9c-0.3-0.4-0.6-0.8-0.8-1.2c-0.3,0.4-0.5,0.8-0.8,1.2c0.2,0.3,0.4,0.5,0.5,0.8c0.8,1,1.6,2,2.6,3   c0.3,0.3,0.7,0.7,1,1c0.3,0.3,0.6,0.6,1,0.9c0.7,0.7,1.5,1.3,2.3,1.9c0.4,0.3,0.8,0.6,1.2,0.9c0.4,0.3,0.7,0.5,1.1,0.8   c2.2,1.5,4.7,3,7.3,4.4c0.5,0.3,1,0.5,1.6,0.8c0.5,0.2,1,0.5,1.5,0.7c16,7.4,38.6,12,63.6,12s47.7-4.6,63.6-12   c0.5-0.2,1-0.5,1.5-0.7c0.5-0.3,1-0.5,1.6-0.8c2.7-1.4,5.1-2.8,7.3-4.4c0.4-0.3,0.8-0.5,1.1-0.8c0.4-0.3,0.8-0.6,1.1-0.9   c0.8-0.6,1.6-1.3,2.3-1.9C203.7,126.9,203.3,126.6,203,126.4z M203,126.4c-0.8,0.7-1.6,1.4-2.5,2c-0.4,0.3-0.8,0.6-1.2,0.9   c-0.4,0.3-0.8,0.5-1.1,0.8c-2.3,1.6-4.9,3.1-7.7,4.5c-0.5,0.3-1,0.5-1.6,0.8c-0.5,0.3-1,0.5-1.6,0.7c-15.7,7-37.7,11.4-62,11.4   S79,143,63.3,136c-0.5-0.2-1.1-0.5-1.6-0.7c-0.5-0.3-1.1-0.5-1.6-0.8c-2.8-1.4-5.4-2.9-7.7-4.5c-0.4-0.3-0.8-0.5-1.1-0.8   c-0.4-0.3-0.8-0.6-1.2-0.9c-0.9-0.7-1.7-1.3-2.5-2c-0.3-0.3-0.7-0.6-1-0.9c-0.3-0.3-0.7-0.7-1-1c-0.9-0.9-1.7-1.9-2.5-2.9   c-0.3-0.4-0.6-0.8-0.8-1.2c-0.3,0.4-0.5,0.8-0.8,1.2c0.2,0.3,0.4,0.5,0.5,0.8c0.8,1,1.6,2,2.6,3c0.3,0.3,0.7,0.7,1,1   c0.3,0.3,0.6,0.6,1,0.9c0.7,0.7,1.5,1.3,2.3,1.9c0.4,0.3,0.8,0.6,1.2,0.9c0.4,0.3,0.7,0.5,1.1,0.8c2.2,1.5,4.7,3,7.3,4.4   c0.5,0.3,1,0.5,1.6,0.8c0.5,0.2,1,0.5,1.5,0.7c16,7.4,38.6,12,63.6,12s47.7-4.6,63.6-12c0.5-0.2,1-0.5,1.5-0.7   c0.5-0.3,1-0.5,1.6-0.8c2.7-1.4,5.1-2.8,7.3-4.4c0.4-0.3,0.8-0.5,1.1-0.8c0.4-0.3,0.8-0.6,1.1-0.9c0.8-0.6,1.6-1.3,2.3-1.9   C203.7,126.9,203.3,126.6,203,126.4z M203,126.4c-0.8,0.7-1.6,1.4-2.5,2c-0.4,0.3-0.8,0.6-1.2,0.9c-0.4,0.3-0.8,0.5-1.1,0.8   c-2.3,1.6-4.9,3.1-7.7,4.5c-0.5,0.3-1,0.5-1.6,0.8c-0.5,0.3-1,0.5-1.6,0.7c-15.7,7-37.7,11.4-62,11.4S79,143,63.3,136   c-0.5-0.2-1.1-0.5-1.6-0.7c-0.5-0.3-1.1-0.5-1.6-0.8c-2.8-1.4-5.4-2.9-7.7-4.5c-0.4-0.3-0.8-0.5-1.1-0.8c-0.4-0.3-0.8-0.6-1.2-0.9   c-0.9-0.7-1.7-1.3-2.5-2c-0.3-0.3-0.7-0.6-1-0.9c-0.3-0.3-0.7-0.7-1-1c-0.9-0.9-1.7-1.9-2.5-2.9c-0.3-0.4-0.6-0.8-0.8-1.2   c-0.3,0.4-0.5,0.8-0.8,1.2c0.2,0.3,0.4,0.5,0.5,0.8c0.8,1,1.6,2,2.6,3c0.3,0.3,0.7,0.7,1,1c0.3,0.3,0.6,0.6,1,0.9   c0.7,0.7,1.5,1.3,2.3,1.9c0.4,0.3,0.8,0.6,1.2,0.9c0.4,0.3,0.7,0.5,1.1,0.8c2.2,1.5,4.7,3,7.3,4.4c0.5,0.3,1,0.5,1.6,0.8   c0.5,0.2,1,0.5,1.5,0.7c16,7.4,38.6,12,63.6,12s47.7-4.6,63.6-12c0.5-0.2,1-0.5,1.5-0.7c0.5-0.3,1-0.5,1.6-0.8   c2.7-1.4,5.1-2.8,7.3-4.4c0.4-0.3,0.8-0.5,1.1-0.8c0.4-0.3,0.8-0.6,1.1-0.9c0.8-0.6,1.6-1.3,2.3-1.9   C203.7,126.9,203.3,126.6,203,126.4z M203,126.4c-0.8,0.7-1.6,1.4-2.5,2c-0.4,0.3-0.8,0.6-1.2,0.9c-0.4,0.3-0.8,0.5-1.1,0.8   c-2.3,1.6-4.9,3.1-7.7,4.5c-0.5,0.3-1,0.5-1.6,0.8c-0.5,0.3-1,0.5-1.6,0.7c-15.7,7-37.7,11.4-62,11.4S79,143,63.3,136   c-0.5-0.2-1.1-0.5-1.6-0.7c-0.5-0.3-1.1-0.5-1.6-0.8c-2.8-1.4-5.4-2.9-7.7-4.5c-0.4-0.3-0.8-0.5-1.1-0.8c-0.4-0.3-0.8-0.6-1.2-0.9   c-0.9-0.7-1.7-1.3-2.5-2c-0.3-0.3-0.7-0.6-1-0.9c-0.3-0.3-0.7-0.7-1-1c-0.9-0.9-1.7-1.9-2.5-2.9c-0.3-0.4-0.6-0.8-0.8-1.2   c-0.3,0.4-0.5,0.8-0.8,1.2c0.2,0.3,0.4,0.5,0.5,0.8c0.8,1,1.6,2,2.6,3c0.3,0.3,0.7,0.7,1,1c0.3,0.3,0.6,0.6,1,0.9   c0.7,0.7,1.5,1.3,2.3,1.9c0.4,0.3,0.8,0.6,1.2,0.9c0.4,0.3,0.7,0.5,1.1,0.8c2.2,1.5,4.7,3,7.3,4.4c0.5,0.3,1,0.5,1.6,0.8   c0.5,0.2,1,0.5,1.5,0.7c16,7.4,38.6,12,63.6,12s47.7-4.6,63.6-12c0.5-0.2,1-0.5,1.5-0.7c0.5-0.3,1-0.5,1.6-0.8   c2.7-1.4,5.1-2.8,7.3-4.4c0.4-0.3,0.8-0.5,1.1-0.8c0.4-0.3,0.8-0.6,1.1-0.9c0.8-0.6,1.6-1.3,2.3-1.9   C203.7,126.9,203.3,126.6,203,126.4z M201.6,129.2c0.8-0.6,1.6-1.3,2.3-1.9c-0.3-0.3-0.6-0.6-1-0.9c-0.8,0.7-1.6,1.4-2.5,2   c-0.4,0.3-0.8,0.6-1.2,0.9c-0.4,0.3-0.8,0.5-1.1,0.8c-2.3,1.6-4.9,3.1-7.7,4.5c-0.5,0.3-1,0.5-1.6,0.8c-0.5,0.3-1,0.5-1.6,0.7   c-15.7,7-37.7,11.4-62,11.4S79,143,63.3,136c-0.5-0.2-1.1-0.5-1.6-0.7c-0.5-0.3-1.1-0.5-1.6-0.8c-2.8-1.4-5.4-2.9-7.7-4.5   c-0.4-0.3-0.8-0.5-1.1-0.8c-0.4-0.3-0.8-0.6-1.2-0.9c-0.9-0.7-1.7-1.3-2.5-2c-0.3-0.3-0.7-0.6-1-0.9c-0.3-0.3-0.7-0.7-1-1   c-0.9-0.9-1.7-1.9-2.5-2.9c-0.3-0.4-0.6-0.8-0.8-1.2c-0.3,0.4-0.5,0.8-0.8,1.2c0.2,0.3,0.4,0.5,0.5,0.8c0.8,1,1.6,2,2.6,3   c0.3,0.3,0.7,0.7,1,1c0.3,0.3,0.6,0.6,1,0.9c-0.3,0.3-0.7,0.7-1,1c0.7,0.6,1.4,1.2,2.2,1.8c0.4,0.3,0.8,0.6,1.2,0.9   c0.4,0.3,0.7,0.5,1.1,0.8c2.1,1.5,4.5,2.9,7,4.3c0.5,0.3,1,0.5,1.5,0.8c0.5,0.3,1,0.5,1.5,0.7c0.9,0.4,1.8,0.9,2.7,1.3   c16.7,7.3,38.9,11.4,62.5,11.4c23.6,0,45.8-4,62.5-11.4c0.9-0.4,1.9-0.8,2.7-1.3c0.5-0.2,1-0.5,1.5-0.7c0.5-0.3,1-0.5,1.5-0.8   c2.6-1.4,4.9-2.8,7-4.3c-0.4-0.3-0.8-0.6-1.2-0.9c0.4-0.3,0.8-0.5,1.1-0.8C200.9,129.8,201.3,129.5,201.6,129.2z" fill="#FFFFFF"></path></g><g xmlns="http://www.w3.org/2000/svg" fill="#FFFFFF"><path d="M144.7,111.3c-1.1-0.8-2.6-1.6-4.6-2.3c-2-0.8-3.7-1.3-5-1.7c-1.1-0.3-2.9-0.7-5.2-1.3v-13   c2.6,0.2,5.8,0.8,9.5,1.8c2.2,0.6,4.8,0,5.8-1.2l0.5-0.6c1-1.3,0.1-2.8-2.1-3.4c-1.4-0.4-3-0.8-4.8-1.1c-2.9-0.6-5.8-1-8.8-1.1   v-6.8c0-0.7-0.5-1.3-1.3-1.8c-0.8-0.5-1.9-0.7-3.1-0.7c-2.4,0-4.3,1.1-4.3,2.5v7c-4,0.5-7.5,1.5-10.4,3.1c-4.3,2.3-6.5,5.2-6.5,8.9   c0,2.6,1.3,4.8,3.9,6.7c1,0.7,2.4,1.5,4.3,2.2c1.8,0.7,3.4,1.3,4.8,1.6c1,0.3,2.3,0.6,4,1.1v14c-3.2-0.2-6.9-0.8-11.1-2   c-2.3-0.6-5,0-5.9,1.4l-0.5,0.8c-0.8,1.2,0.1,2.6,2.1,3.1c4.6,1.4,9.8,2.1,15.5,2.2v6.7c0,1.4,1.9,2.5,4.3,2.5s4.3-1.1,4.3-2.5v-7   c4.6-0.5,8.4-1.4,11.7-2.8c4.8-2.1,7.2-5.1,7.2-9.1C148.7,115.7,147.4,113.4,144.7,111.3z M120.2,103c-2.9-1.1-4.3-2.6-4.3-4.5   c0-1.7,1.1-3,3.3-4.1c0.6-0.3,1.3-0.6,2.1-0.8v9.8C120.9,103.3,120.5,103.1,120.2,103z M133.7,123.5c-1.1,0.5-2.3,0.8-3.8,1.1   v-11.3c0.8,0.3,1.8,0.6,2.8,1c3.1,1.2,4.6,2.8,4.6,4.9C137.3,121,136.1,122.5,133.7,123.5z" fill="#FFFFFF"></path></g></g><g id="SvgjsG2338" featurekey="Ua4uQk-0" transform="matrix(3.401422406467777,0,0,3.401422406467777,78.91829213908392,-19.932334134115465)" fill="#FFFFFF"><path d="M9.16 12.219999999999999 c1.4 0.4 2.84 1.66 2.84 3.66 c0 2.56 -1.6 4.12 -5.1 4.12 l-5.7 0 l0 -14 l5.32 0 c2.94 0 4.42 1.66 4.42 3.54 c0 1.54 -1 2.32 -1.78 2.68 z M6.22 8.8 l-1.8 0 l0 2.5 l1.8 0 c1.14 0 1.52 -0.52 1.52 -1.26 c0 -0.8 -0.48 -1.24 -1.52 -1.24 z M6.72 17.2 c1.42 0 2.06 -0.6 2.06 -1.74 c0 -0.96 -0.64 -1.58 -2.22 -1.58 l-2.14 0 l0 3.32 l2.3 0 z M18.880000000000003 9.42 c2.36 0 5.66 1.78 5 6.48 l-7.26 0 c0.36 1.08 1.3 1.64 2.56 1.64 c1.28 0 1.68 -0.28 2.4 -0.58 l1.74 1.68 c-0.92 0.9 -2.16 1.56 -4.26 1.56 c-2.58 0 -5.66 -1.78 -5.66 -5.36 c0 -3.64 3.12 -5.42 5.48 -5.42 z M18.880000000000003 12.120000000000001 c-0.9 0 -1.82 0.52 -2.22 1.56 l4.42 0 c-0.32 -1.04 -1.3 -1.56 -2.2 -1.56 z M28.840000000000003 5.859999999999999 l0 14.14 l-3.16 0 l0 -14.14 l3.16 0 z M34.040000000000006 5.859999999999999 l0 2.66 l-3.16 0 l0 -2.66 l3.16 0 z M34.040000000000006 9.6 l0 10.4 l-3.16 0 l0 -10.4 l3.16 0 z M41.46 6 c3.96 0 7.1 3.12 7.1 6.9 c0 3.98 -3.14 7.1 -7.1 7.1 l-5.2 0 l0 -14 l5.2 0 z M41.440000000000005 16.96 c2.54 0 3.82 -1.84 3.82 -4.06 c0 -2.02 -1.28 -3.86 -3.82 -3.86 l-1.96 0 l0 7.92 l1.96 0 z M53.54 5.859999999999999 l0 2.66 l-3.16 0 l0 -2.66 l3.16 0 z M53.54 9.6 l0 10.4 l-3.16 0 l0 -10.4 l3.16 0 z M63.06 9.6 l3.16 0 l0 10.4 c0 3.16 -3.2 4.12 -5.52 4.12 c-1.1 0 -2.1 -0.18 -2.74 -0.52 l0 -2.58 c0.64 0.34 1.6 0.48 2.74 0.48 c1.86 0 2.36 -0.96 2.36 -1.5 l0 -1.04 c-0.14 0.36 -1.08 1.24 -2.68 1.24 c-2.38 0 -5.12 -1.7 -5.12 -5.42 c0 -3.58 2.74 -5.36 5.12 -5.36 c1.6 0 2.54 0.92 2.68 1.14 l0 -0.96 z M60.84 17.42 c1.3 0 2.36 -0.9 2.36 -2.64 c0 -1.68 -1.06 -2.58 -2.36 -2.58 c-1.36 0 -2.52 0.92 -2.52 2.58 c0 1.72 1.16 2.64 2.52 2.64 z M71.42000000000002 5.859999999999999 l0 2.66 l-3.16 0 l0 -2.66 l3.16 0 z M71.42000000000002 9.6 l0 10.4 l-3.16 0 l0 -10.4 l3.16 0 z" fill="#FFFFFF"></path></g></svg>